<svg width="193" height="226" viewBox="0 0 193 226" fill="none" xmlns="http://www.w3.org/2000/svg">
<path d="M30.6227 52.2312C34.5724 40.1621 32.8173 26.5377 31.446 21.2341L55.9039 1.10742L72.4835 22.812C71.609 25.2798 70.1224 32.0081 71.1718 39.1787C72.4835 48.142 71.4867 54.0447 69.5191 57.1053C67.5516 60.166 66.6771 69.3479 67.5516 75.2505C68.426 81.1532 66.5195 113.946 61.2117 128.374C55.9039 142.803 53.9973 165.977 54.2159 171.879C54.4345 177.782 52.1731 176.684 55.3525 183.503C57.8961 188.959 55.423 191.767 53.8685 192.489C54.8951 195.558 55.7963 197.925 55.9039 199.862C56.1667 204.593 60.1089 210.374 58.532 218.127C56.9551 225.88 47.8881 225.88 41.3179 225.223C34.7476 224.566 31.7252 217.996 23.8409 218.916C15.9565 219.836 12.0144 218.127 10.0433 216.288C8.0722 214.448 3.99857 216.156 2.42178 215.631C0.844999 215.105 -0.469226 210.769 3.99857 210.374C8.46637 209.98 22.5268 200.65 26.469 195.131C30.4111 189.612 26.2342 189.109 26.7829 184.172C27.3315 179.234 28.4287 186.64 30.0741 174.022C31.7195 161.404 21.0224 125.196 21.0224 98.5883C21.0224 71.9807 25.6856 67.3175 30.6227 52.2312Z" fill="#D9D9D9"/>
<path d="M50.6477 158.995C50.6477 164.251 50.6477 170.737 50.6477 174.022C50.6477 182.182 52.3885 188.065 53.8685 192.489M53.8685 192.489C54.8951 195.558 55.7963 197.925 55.9039 199.862C56.1667 204.593 60.1089 210.374 58.532 218.127C56.9551 225.88 47.8881 225.88 41.3179 225.223C34.7476 224.566 31.7252 217.996 23.8409 218.916C15.9565 219.836 12.0144 218.127 10.0433 216.288C8.0722 214.448 3.99857 216.156 2.42178 215.631C0.844999 215.105 -0.469226 210.769 3.99857 210.374C8.46637 209.98 22.5268 200.65 26.469 195.131C30.4111 189.612 26.2342 189.109 26.7829 184.172C27.3315 179.234 28.4287 186.64 30.0741 174.022C31.7195 161.404 21.0224 125.196 21.0224 98.5883C21.0224 71.9807 25.6856 67.3175 30.6227 52.2312C34.5724 40.1621 32.8173 26.5377 31.446 21.2341L55.9039 1.10742L72.4835 22.812C71.609 25.2798 70.1224 32.0081 71.1718 39.1787C72.4835 48.142 71.4867 54.0447 69.5191 57.1053C67.5516 60.166 66.6771 69.3479 67.5516 75.2505C68.426 81.1532 66.5195 113.946 61.2117 128.374C55.9039 142.803 53.9973 165.977 54.2159 171.879C54.4345 177.782 52.1731 176.684 55.3525 183.503C57.8961 188.959 55.423 191.767 53.8685 192.489Z" stroke="black"/>
<path d="M43.946 160.834C44.0774 169.42 42.9736 188.772 37.5071 197.497" stroke="black"/>
<path d="M50.9218 63.2029C51.7997 54.6445 57.8709 43.91 60.7968 39.6125C60.7968 43.4527 63.2656 63.2029 66.0086 70.0606C68.7517 76.9183 69.8489 98.8627 67.6545 106.269C65.46 113.675 59.4253 140.557 53.6649 141.38C47.9044 142.203 48.1787 139.734 47.6301 126.293C47.0815 112.852 49.8245 73.9009 50.9218 63.2029Z" fill="#D9D9D9" stroke="black"/>
<path d="M33.3664 57.7168C35.3413 53.1084 40.7726 44.2758 43.2414 40.4355C51.1963 47.8418 51.4704 66.2203 51.7447 68.6891C52.019 71.1578 50.0989 86.7932 49.8246 101.057C49.5503 115.321 45.1614 128.762 41.5955 133.7C38.0297 138.637 30.0747 136.717 27.8802 131.231C25.6858 125.745 18.0053 94.7481 21.8455 80.7585C25.6858 66.7689 30.8976 63.4772 33.3664 57.7168Z" fill="#D9D9D9" stroke="black"/>
<path d="M162.269 52.2312C158.319 40.1621 160.074 26.5377 161.446 21.2341L136.988 1.10742L120.408 22.812C121.283 25.2798 122.769 32.0081 121.72 39.1787C120.408 48.142 121.405 54.0447 123.372 57.1053C125.34 60.166 126.215 69.3479 125.34 75.2505C124.466 81.1532 126.372 113.946 131.68 128.374C136.988 142.803 138.894 165.977 138.676 171.879C138.457 177.782 140.719 176.684 137.539 183.503C134.995 188.959 137.469 191.767 139.023 192.489C137.996 195.558 137.095 197.925 136.988 199.862C136.725 204.593 132.783 210.374 134.36 218.127C135.936 225.88 145.003 225.88 151.574 225.223C158.144 224.566 161.166 217.996 169.051 218.916C176.935 219.836 180.877 218.127 182.848 216.288C184.819 214.448 188.893 216.156 190.47 215.631C192.047 215.105 193.361 210.769 188.893 210.374C184.425 209.98 170.365 200.65 166.423 195.131C162.48 189.612 166.657 189.109 166.109 184.172C165.56 179.234 164.463 186.64 162.817 174.022C161.172 161.404 171.869 125.196 171.869 98.5883C171.869 71.9807 167.206 67.3175 162.269 52.2312Z" fill="#D9D9D9"/>
<path d="M142.244 158.995C142.244 164.251 142.244 170.737 142.244 174.022C142.244 182.182 140.503 188.065 139.023 192.489M139.023 192.489C137.996 195.558 137.095 197.925 136.988 199.862C136.725 204.593 132.783 210.374 134.36 218.127C135.936 225.88 145.003 225.88 151.574 225.223C158.144 224.566 161.166 217.996 169.051 218.916C176.935 219.836 180.877 218.127 182.848 216.288C184.819 214.448 188.893 216.156 190.47 215.631C192.047 215.105 193.361 210.769 188.893 210.374C184.425 209.98 170.365 200.65 166.423 195.131C162.48 189.612 166.657 189.109 166.109 184.172C165.56 179.234 164.463 186.64 162.817 174.022C161.172 161.404 171.869 125.196 171.869 98.5883C171.869 71.9807 167.206 67.3175 162.269 52.2312C158.319 40.1621 160.074 26.5377 161.446 21.2341L136.988 1.10742L120.408 22.812C121.283 25.2798 122.769 32.0081 121.72 39.1787C120.408 48.142 121.405 54.0447 123.372 57.1053C125.34 60.166 126.215 69.3479 125.34 75.2505C124.466 81.1532 126.372 113.946 131.68 128.374C136.988 142.803 138.894 165.977 138.676 171.879C138.457 177.782 140.719 176.684 137.539 183.503C134.995 188.959 137.469 191.767 139.023 192.489Z" stroke="black"/>
<path d="M148.946 160.834C148.814 169.42 149.918 188.772 155.385 197.497" stroke="black"/>
<path d="M141.97 63.2029C141.092 54.6445 135.021 43.91 132.095 39.6125C132.095 43.4527 129.626 63.2029 126.883 70.0606C124.14 76.9183 123.043 98.8627 125.237 106.269C127.432 113.675 133.466 140.557 139.227 141.38C144.987 142.203 144.713 139.734 145.262 126.293C145.81 112.852 143.067 73.9009 141.97 63.2029Z" fill="#D9D9D9" stroke="black"/>
<path d="M159.525 57.7168C157.55 53.1084 152.119 44.2758 149.65 40.4355C141.695 47.8418 141.421 66.2203 141.147 68.6891C140.873 71.1578 142.793 86.7932 143.067 101.057C143.341 115.321 147.73 128.762 151.296 133.7C154.862 138.637 162.817 136.717 165.011 131.231C167.206 125.745 174.886 94.7481 171.046 80.7585C167.206 66.7689 161.994 63.4772 159.525 57.7168Z" fill="#D9D9D9" stroke="black"/>
</svg>
