<svg width="272" height="112" viewBox="0 0 272 112" fill="none" xmlns="http://www.w3.org/2000/svg">
<path d="M47.4007 35.4188C40.4035 56.3737 22.9911 89.4051 11.5742 106.484L21.2254 111.16C30.6931 84.1493 40.8946 88.7893 51.2992 64.3785C58.5392 47.3924 62.716 30.4064 64.1084 20.3818C60.3213 25.2827 51.392 32.4485 47.4007 35.4188Z" fill="#D9D9D9" stroke="black"/>
<path d="M0.941406 102.096L4.98755 103.497C12.1461 81.0869 14.39 74.9734 20.0831 56.8098C24.2175 43.619 32.0134 26.7298 36.4554 23.4259V16.1252C30.5417 19.7046 21.0168 34.4001 17.5931 44.6712C14.8541 52.8881 5.35073 86.3782 0.941406 102.096Z" fill="#D9D9D9" stroke="black"/>
<path d="M36.5583 23.6586C23.4814 35.4597 13.9453 80.5297 4.67148 103.346L11.5744 106.574C26.5239 83.2151 34.3583 67.0732 39.666 54.547C45.5057 40.7655 56.3002 10.8204 58.6554 1.10498C56.889 7.28755 45.7588 15.3557 36.5583 23.6586Z" fill="#D9D9D9" stroke="black"/>
<path d="M224.657 35.4188C231.655 56.3737 249.067 89.4051 260.484 106.484L250.833 111.16C241.365 84.1493 231.164 88.7893 220.759 64.3785C213.519 47.3924 209.342 30.4064 207.95 20.3818C211.737 25.2827 220.666 32.4485 224.657 35.4188Z" fill="#D9D9D9" stroke="black"/>
<path d="M271.117 102.096L267.071 103.497C259.912 81.0869 257.668 74.9734 251.975 56.8098C247.841 43.619 240.045 26.7298 235.603 23.4259V16.1252C241.516 19.7046 251.041 34.4001 254.465 44.6712C257.204 52.8881 266.707 86.3782 271.117 102.096Z" fill="#D9D9D9" stroke="black"/>
<path d="M235.5 23.6586C248.577 35.4597 258.113 80.5297 267.387 103.346L260.484 106.574C245.534 83.2151 237.7 67.0732 232.392 54.547C226.552 40.7655 215.758 10.8204 213.403 1.10498C215.169 7.28755 226.299 15.3557 235.5 23.6586Z" fill="#D9D9D9" stroke="black"/>
</svg>
