<svg width="124" height="88" viewBox="0 0 124 88" fill="none" xmlns="http://www.w3.org/2000/svg">
<path d="M8.06918 24.135C14.2667 21.8109 27.5978 7.67281 33.4886 0.894287C34.2149 0.894287 37.8947 2.58893 46.8036 9.36752C55.7126 16.1461 60.6835 32.2048 62.0553 39.3868V66.0168C58.7468 73.7637 49.3698 88.386 38.3304 84.8999C27.2911 81.4137 15.9774 84.5771 11.7004 86.5945C9.52162 84.4157 10.0058 80.7843 11.7004 74.2479C13.3951 67.7114 16.3002 63.1117 13.8793 52.4597C11.9425 43.9381 4.84126 43.0988 1.53271 43.7444C2.11373 39.871 6.13245 29.0575 8.06918 24.135Z" fill="#D9D9D9" stroke="black"/>
<path d="M116.822 24.135C110.625 21.8109 97.2938 7.67281 91.403 0.894287C90.6767 0.894287 86.9969 2.58893 78.088 9.36752C69.1791 16.1461 64.2081 32.2048 62.8363 39.3868V66.0168C66.1448 73.7637 75.5218 88.386 86.5612 84.8999C97.6005 81.4137 108.914 84.5771 113.191 86.5945C115.37 84.4157 114.886 80.7843 113.191 74.2479C111.497 67.7114 108.591 63.1117 111.012 52.4597C112.949 43.9381 120.05 43.0988 123.359 43.7444C122.778 39.871 118.759 29.0575 116.822 24.135Z" fill="#D9D9D9" stroke="black"/>
</svg>
