<svg width="145" height="158" viewBox="0 0 145 158" fill="none" xmlns="http://www.w3.org/2000/svg">
<path d="M45.8848 42.5078C51.0737 57.4259 60.0894 92.2047 54.6411 111.975" stroke="black"/>
<path d="M1.39564 95.3565C-0.66624 65.74 6.01099 22.5228 11.5648 2.20108C14.1353 0.810228 21.4709 0.0635834 24.1527 10.2199C27.1074 21.4098 16.8661 40.0889 21.7844 44.5704C21.7844 44.5704 36.4146 41.087 38.1182 41.9952C40.7908 93.0405 25.0637 139.479 16.8661 156.318C14.4329 149.54 9.07665 138.417 5.24615 121.668C3.51284 114.089 2.09193 105.358 1.39564 95.3565Z" fill="#D9D9D9"/>
<path d="M20.9017 44.5704C9.72259 57.1903 1.19824 91.9305 5.24615 121.668M11.5648 2.20108C6.01099 22.5228 -0.66624 65.74 1.39564 95.3565C3.6307 127.46 13.3319 146.473 16.8661 156.318C25.0637 139.479 40.7908 93.0405 38.1182 41.9952C36.4146 41.087 21.7844 44.5704 21.7844 44.5704C16.8661 40.0889 27.1074 21.4098 24.1527 10.2199C21.4709 0.0635834 14.1353 0.810228 11.5648 2.20108Z" stroke="black"/>
<path d="M37.8228 155.551C37.8228 152.599 33.5728 126.809 31.4478 114.283C39.6679 80.0139 39.2088 51.6723 37.9517 41.785C40.4937 41.6745 44.8133 42.3837 46.6554 42.7521C58.2603 45.4047 65.0624 37.8613 67.0128 33.7581L69.026 36.4421C68.8023 49.751 66.8786 79.7241 60.9735 93.1449C53.5921 109.921 54.2631 114.283 51.9145 124.348C49.5658 134.414 37.8227 159.242 37.8228 155.551Z" fill="#D9D9D9" stroke="black"/>
<path d="M99.0068 42.5078C93.8179 57.4259 84.8022 92.2047 90.2505 111.975" stroke="black"/>
<path d="M143.496 95.3565C145.558 65.74 138.881 22.5228 133.327 2.20108C130.756 0.810228 123.421 0.0635834 120.739 10.2199C117.784 21.4098 128.026 40.0889 123.107 44.5704C123.107 44.5704 108.477 41.087 106.773 41.9952C104.101 93.0405 119.828 139.479 128.026 156.318C130.459 149.54 135.815 138.417 139.645 121.668C141.379 114.089 142.8 105.358 143.496 95.3565Z" fill="#D9D9D9"/>
<path d="M123.99 44.5704C135.169 57.1903 143.693 91.9305 139.645 121.668M133.327 2.20108C138.881 22.5228 145.558 65.74 143.496 95.3565C141.261 127.46 131.56 146.473 128.026 156.318C119.828 139.479 104.101 93.0405 106.773 41.9952C108.477 41.087 123.107 44.5704 123.107 44.5704C128.026 40.0889 117.784 21.4098 120.739 10.2199C123.421 0.0635834 130.756 0.810228 133.327 2.20108Z" stroke="black"/>
<path d="M107.069 155.551C107.069 152.599 111.319 126.809 113.444 114.283C105.224 80.0139 105.683 51.6723 106.94 41.785C104.398 41.6745 100.078 42.3837 98.2362 42.7521C86.6313 45.4047 79.8292 37.8613 77.8788 33.7581L75.8656 36.4421C76.0893 49.751 78.013 79.7241 83.9181 93.1449C91.2995 109.921 90.6285 114.283 92.9771 124.348C95.3258 134.414 107.069 159.242 107.069 155.551Z" fill="#D9D9D9" stroke="black"/>
</svg>
