<svg width="333" height="64" viewBox="0 0 333 64" fill="none" xmlns="http://www.w3.org/2000/svg">
<path d="M16.6945 40.4449C18.5031 38.5459 20.3392 31.2996 20.5653 29.2272C20.1666 29.9794 19.2186 31.897 18.616 33.5496C17.8628 35.6152 13.6425 38.9298 12.8204 40.9932C11.9984 43.0565 9.68054 45.6581 8.10354 49.6054C6.52654 53.5526 0.799271 56.3336 0.53014 52.2009C0.261009 48.0681 2.56449 47.3626 4.26016 43.6845C5.95582 40.0064 5.91276 36.2385 8.10354 33.5496C10.2943 30.8606 12.2858 28.7926 14.7941 25.8628C16.8007 23.5191 17.8766 20.5597 18.1638 19.373L15.5437 21.69C14.5263 24.1769 7.08612 26.0889 4.26016 25.8628C1.4342 25.6368 -1.16578 22.0195 2.56449 20.8892C6.29476 19.7588 10.2511 14.8981 12.2858 12.7504C14.3205 10.6027 13.6423 8.45493 18.1638 7.4375C21.781 6.62355 28.412 2.88693 31.3894 1.22046C38.443 5.92286 47.5915 9.81145 51.2841 11.168C51.3972 13.6548 51.5554 19.0354 51.2841 20.6632C50.945 22.6979 47.4408 30.8366 45.2931 33.5496C43.1454 36.2625 41.7889 39.3145 41.6759 42.4796C41.5628 45.6447 39.5281 48.4706 39.189 50.9575C38.8499 53.4443 36.7022 58.7571 34.6675 60.2266C32.6328 61.6961 30.9372 60.7918 30.5981 58.7571C30.259 56.7224 31.3894 56.3833 32.8589 52.2009C34.3284 48.0185 34.1023 47.7924 34.6675 44.5143C35.2327 41.2362 35.9109 37.6189 34.6675 37.6189C33.4241 37.6189 32.9719 42.4796 32.4067 45.0795C31.8415 47.6794 29.4677 51.1835 28.9025 53.3313C28.3373 55.479 27.207 63.2787 22.5724 62.6004C17.9378 61.9222 21.442 57.9659 22.5724 55.479C23.7028 52.9922 23.7028 50.2792 24.6071 47.7924C25.5114 45.3055 26.9809 43.3839 27.8852 40.4449C28.7895 37.506 28.5634 33.8887 27.8852 34.1147C27.207 34.3408 24.9462 38.8624 23.7028 42.4796C22.4593 46.0968 19.6334 48.4706 18.616 52.2009C17.5986 55.9312 13.6425 61.0179 10.7033 60.7918C7.76422 60.5657 6.521 57.0615 8.10354 55.479C9.68608 53.8965 13.0773 49.488 13.6425 48.4706C14.2076 47.4533 14.4337 42.8187 16.6945 40.4449Z" fill="#D9D9D9" stroke="black"/>
<path d="M315.364 40.4449C313.555 38.5459 311.719 31.2996 311.493 29.2272C311.892 29.9794 312.839 31.897 313.442 33.5496C314.195 35.6152 318.416 38.9298 319.238 40.9932C320.06 43.0565 322.378 45.6581 323.955 49.6054C325.532 53.5526 331.259 56.3336 331.528 52.2009C331.797 48.0681 329.494 47.3626 327.798 43.6845C326.102 40.0064 326.145 36.2385 323.955 33.5496C321.764 30.8606 319.772 28.7926 317.264 25.8628C315.257 23.5191 314.181 20.5597 313.894 19.373L316.514 21.69C317.532 24.1769 324.972 26.0889 327.798 25.8628C330.624 25.6368 333.224 22.0195 329.494 20.8892C325.763 19.7588 321.807 14.8981 319.772 12.7504C317.738 10.6027 318.416 8.45493 313.894 7.4375C310.277 6.62355 303.646 2.88693 300.669 1.22046C293.615 5.92286 284.467 9.81145 280.774 11.168C280.661 13.6548 280.503 19.0354 280.774 20.6632C281.113 22.6979 284.617 30.8366 286.765 33.5496C288.913 36.2625 290.269 39.3145 290.382 42.4796C290.495 45.6447 292.53 48.4706 292.869 50.9575C293.208 53.4443 295.356 58.7571 297.391 60.2266C299.425 61.6961 301.121 60.7918 301.46 58.7571C301.799 56.7224 300.669 56.3833 299.199 52.2009C297.73 48.0185 297.956 47.7924 297.391 44.5143C296.825 41.2362 296.147 37.6189 297.391 37.6189C298.634 37.6189 299.086 42.4796 299.651 45.0795C300.217 47.6794 302.59 51.1835 303.156 53.3313C303.721 55.479 304.851 63.2787 309.486 62.6004C314.12 61.9222 310.616 57.9659 309.486 55.479C308.355 52.9922 308.355 50.2792 307.451 47.7924C306.547 45.3055 305.077 43.3839 304.173 40.4449C303.269 37.506 303.495 33.8887 304.173 34.1147C304.851 34.3408 307.112 38.8624 308.355 42.4796C309.599 46.0968 312.425 48.4706 313.442 52.2009C314.459 55.9312 318.416 61.0179 321.355 60.7918C324.294 60.5657 325.537 57.0615 323.955 55.479C322.372 53.8965 318.981 49.488 318.416 48.4706C317.85 47.4533 317.624 42.8187 315.364 40.4449Z" fill="#D9D9D9" stroke="black"/>
</svg>
