<svg width="195" height="58" viewBox="0 0 195 58" fill="none" xmlns="http://www.w3.org/2000/svg">
<path d="M10.6849 11.3547C16.1067 2.8047 24.0659 1.01483 27.3677 1.18864C40.714 2.43972 51.3491 13.0056 54.9984 18.1322C49.003 37.4216 19.8083 52.5403 15.6376 53.8436C11.4669 55.1469 4.68963 60.8816 2.08296 52.5403C-0.523714 44.1989 3.90763 22.0421 10.6849 11.3547Z" fill="#D9D9D9" stroke="black"/>
<path d="M184.757 11.3547C179.335 2.8047 171.376 1.01483 168.074 1.18864C154.728 2.43972 144.093 13.0056 140.444 18.1322C146.439 37.4216 175.634 52.5403 179.805 53.8436C183.975 55.1469 190.753 60.8816 193.359 52.5403C195.966 44.1989 191.535 22.0421 184.757 11.3547Z" fill="#D9D9D9" stroke="black"/>
</svg>
