<svg width="146" height="193" viewBox="0 0 146 193" fill="none" xmlns="http://www.w3.org/2000/svg">
<path d="M62.5156 2.46223C64.8422 0.446008 70.6221 0.454004 73.2212 0.710029V191.509C69.5476 189.665 62.6494 177.486 59.6595 171.626C34.8783 125.234 51.3031 125.522 39.4887 99.5879C30.0373 78.8408 11.0928 70.9133 2.802 69.5429C4.74076 68.7674 17.1487 66.0532 19.4752 65.0838C21.8017 64.1144 49.5259 44.7269 53.0156 39.6861C56.5054 34.6454 59.6074 4.9825 62.5156 2.46223Z" fill="#D9D9D9" stroke="black"/>
<path d="M83.9267 2.46223C81.6001 0.446008 75.8203 0.454004 73.2212 0.710029V191.509C76.8948 189.665 83.793 177.486 86.7829 171.626C111.564 125.234 95.1393 125.522 106.954 99.5879C116.405 78.8408 135.35 70.9133 143.64 69.5429C141.702 68.7674 129.294 66.0532 126.967 65.0838C124.641 64.1144 96.9165 44.7269 93.4267 39.6861C89.937 34.6454 86.835 4.9825 83.9267 2.46223Z" fill="#D9D9D9" stroke="black"/>
</svg>
