<svg width="214" height="75" viewBox="0 0 214 75" fill="none" xmlns="http://www.w3.org/2000/svg">
<path d="M13.7573 16.2114C-2.70227 31.5842 0.176206 55.3828 3.86405 65.7995L7.74008 61.5362C7.08329 56.4898 6.99628 49.7903 7.74008 37.3684C8.26016 28.6827 11.6222 19.6405 13.7573 16.2114Z" fill="#D9D9D9" stroke="black"/>
<path d="M30.4798 36.5972C33.8721 27.2785 34.1145 13.8552 33.8116 8.30834C39.3848 5.64586 43.2119 2.4402 44.9282 1.33081C47.0483 7.98704 49.8634 27.9569 43.8058 42.3787C38.9597 53.9161 27.7714 67.8733 19.2732 72.9291C21.6784 68.3543 26.2395 48.2457 30.4798 36.5972Z" fill="#D9D9D9" stroke="black"/>
<path d="M9.20637 26.2054C13.6312 11.1535 22.0382 16.2144 33.1 9.46707C34.8032 13.9351 34.0739 22.5268 33.1 26.2058C31.6796 31.5715 30.3059 39.3694 22.9981 48.0424C16.4417 55.8237 10.2323 59.6598 7.48847 61.3875C7.48847 57.6343 6.58944 35.1073 9.20637 26.2054Z" fill="#D9D9D9" stroke="black"/>
<path d="M200.301 16.2114C216.76 31.5842 213.882 55.3828 210.194 65.7995L206.318 61.5362C206.975 56.4898 207.062 49.7903 206.318 37.3684C205.798 28.6827 202.436 19.6405 200.301 16.2114Z" fill="#D9D9D9" stroke="black"/>
<path d="M183.578 36.5972C180.186 27.2785 179.944 13.8552 180.246 8.30834C174.673 5.64586 170.846 2.4402 169.13 1.33081C167.01 7.98704 164.195 27.9569 170.252 42.3787C175.098 53.9161 186.287 67.8733 194.785 72.9291C192.38 68.3543 187.819 48.2457 183.578 36.5972Z" fill="#D9D9D9" stroke="black"/>
<path d="M204.852 26.2054C200.427 11.1535 192.02 16.2144 180.958 9.46707C179.255 13.9351 179.984 22.5268 180.958 26.2058C182.379 31.5715 183.752 39.3694 191.06 48.0424C197.616 55.8237 203.826 59.6598 206.57 61.3875C206.57 57.6343 207.469 35.1073 204.852 26.2054Z" fill="#D9D9D9" stroke="black"/>
</svg>
