<svg width="126" height="156" viewBox="0 0 126 156" fill="none" xmlns="http://www.w3.org/2000/svg">
<path d="M11.8772 110.53C7.2831 102.95 2.88047 76.7442 1.25342 64.5891C5.15904 53.7837 2.88076 33.4677 1.25342 24.6604C10.9406 18.1781 18.0949 6.48351 20.4612 1.44653C31.3381 11.9584 33.1042 25.0781 35.4274 45.6496C37.2859 62.1067 48.9361 85.0921 54.5288 94.5277C49.2853 102.018 38.124 119.172 35.4274 127.862C32.7307 136.551 17.075 149.46 9.58422 154.828C9.08484 152.706 8.3857 146.439 9.58422 138.349C10.7827 130.259 11.6123 116.432 11.8772 110.53Z" fill="#D9D9D9" stroke="black"/>
<path d="M12.0781 110.452C14.4912 112.262 20.0413 116.605 22.937 119.501C26.5567 123.121 31.5839 130.159 34.1981 130.561" stroke="black"/>
<path d="M3.05664 38.3367C5.31467 41.2863 11.592 47.7165 18.6369 49.8401C25.6819 51.9638 32.8624 46.8905 35.572 44.0884" stroke="black"/>
<path d="M114.772 110.53C119.366 102.95 123.769 76.7442 125.396 64.5891C121.49 53.7837 123.769 33.4677 125.396 24.6604C115.709 18.1781 108.555 6.48351 106.188 1.44653C95.3113 11.9584 93.5452 25.0781 91.2221 45.6496C89.3635 62.1067 77.7134 85.0921 72.1206 94.5277C77.3641 102.018 88.5254 119.172 91.2221 127.862C93.9187 136.551 109.574 149.46 117.065 154.828C117.565 152.706 118.264 146.439 117.065 138.349C115.867 130.259 115.037 116.432 114.772 110.53Z" fill="#D9D9D9" stroke="black"/>
<path d="M114.571 110.452C112.158 112.262 106.608 116.605 103.712 119.501C100.093 123.121 95.0655 130.159 92.4513 130.561" stroke="black"/>
<path d="M123.593 38.3367C121.335 41.2863 115.057 47.7165 108.012 49.8401C100.968 51.9638 93.787 46.8905 91.0774 44.0884" stroke="black"/>
</svg>
