<svg width="69" height="91" viewBox="0 0 69 91" fill="none" xmlns="http://www.w3.org/2000/svg">
<path d="M9.341 16.8486C15.2016 4.78948 28.2186 1.39902 33.9946 1.21118H34.8812C40.6571 1.39902 53.6741 4.78948 59.5347 16.8486C65.3953 28.9078 63.8551 38.8726 62.3524 42.3475C63.8551 41.3614 67.086 39.9808 67.9876 42.3475C69.1146 45.306 66.5787 59.3938 64.4656 59.8164C62.775 60.1545 61.8828 59.4877 61.6479 59.112C61.4601 61.46 60.7744 67.0857 59.5347 70.8049C57.9851 75.4538 49.2507 83.7656 47.2784 85.4561C45.3061 87.1467 42.4886 89.9642 40.6572 90.1051C39.2099 90.2164 35.9287 90.2014 34.5971 90.201C33.2577 90.2014 29.6657 90.2164 28.2186 90.1051C26.3872 89.9642 23.5696 87.1467 21.5973 85.4561C19.625 83.7656 10.8906 75.4538 9.341 70.8049C8.10131 67.0857 7.41565 61.46 7.22778 59.112C6.99296 59.4877 6.10069 60.1545 4.41016 59.8164C2.297 59.3938 -0.238904 45.306 0.888119 42.3475C1.78974 39.9808 5.0206 41.3614 6.52333 42.3475C5.02063 38.8726 3.48039 28.9078 9.341 16.8486Z" fill="#D9D9D9"/>
<path d="M34.646 90.201C33.3473 90.201 29.6837 90.2178 28.2186 90.1051C26.3872 89.9642 23.5696 87.1467 21.5973 85.4561C19.625 83.7656 10.8906 75.4538 9.341 70.8049C8.10131 67.0857 7.41565 61.46 7.22778 59.112C6.99296 59.4877 6.10069 60.1545 4.41016 59.8164C2.297 59.3938 -0.238904 45.306 0.888119 42.3475C1.78974 39.9808 5.0206 41.3614 6.52333 42.3475C5.02063 38.8726 3.48039 28.9078 9.341 16.8486C15.2016 4.78948 28.2186 1.39902 33.9946 1.21118H34.8812C40.6571 1.39902 53.6741 4.78948 59.5347 16.8486C65.3953 28.9078 63.8551 38.8726 62.3524 42.3475C63.8551 41.3614 67.086 39.9808 67.9876 42.3475C69.1146 45.306 66.5787 59.3938 64.4656 59.8164C62.775 60.1545 61.8828 59.4877 61.6479 59.112C61.4601 61.46 60.7744 67.0857 59.5347 70.8049C57.9851 75.4538 49.2507 83.7656 47.2784 85.4561C45.3061 87.1467 42.4886 89.9642 40.6572 90.1051C39.192 90.2178 35.8476 90.201 34.5488 90.201" stroke="black"/>
</svg>
