<svg width="209" height="75" viewBox="0 0 209 75" fill="none" xmlns="http://www.w3.org/2000/svg">
<path d="M1.50583 39.2241C1.05942 27.6177 8.20182 18.3921 11.8288 15.2302C13.4277 13.6257 17.052 11.3997 18.6643 10.4873C27.0343 7.69732 34.3347 4.58181 36.9387 3.3728C38.6127 35.3182 29.2663 49.4076 22.9888 57.0801C17.9668 63.2181 10.3873 71.2626 7.22534 74.5175C7.59734 73.5875 7.92284 70.7511 6.24885 66.8451C4.15635 61.9626 2.06383 53.7321 1.50583 39.2241Z" fill="#D9D9D9" stroke="black"/>
<path d="M207.734 39.2241C208.18 27.6177 201.038 18.3921 197.411 15.2302C195.812 13.6257 192.188 11.3997 190.575 10.4873C182.205 7.69732 174.905 4.58181 172.301 3.3728C170.627 35.3182 179.973 49.4076 186.251 57.0801C191.273 63.2181 198.852 71.2626 202.014 74.5175C201.642 73.5875 201.317 70.7511 202.991 66.8451C205.083 61.9626 207.176 53.7321 207.734 39.2241Z" fill="#D9D9D9" stroke="black"/>
<path d="M46.8585 14.7275C46.7076 13.3706 42.273 5.36805 40.0745 1.53638L37.0596 3.79776C37.248 25.6575 34.4083 36.2584 31.9714 42.6177C26.5923 56.6552 7.6272 73.6981 7.6272 73.6981C7.6272 73.6981 14.4478 69.2561 31.9714 67.8815C31.9714 60.509 34.4965 58.7903 40.0745 48.3881C47.047 35.3853 47.047 16.4237 46.8585 14.7275Z" fill="#D9D9D9" stroke="black"/>
<path d="M162.381 14.7275C162.532 13.3706 166.967 5.36805 169.165 1.53638L172.18 3.79776C171.992 25.6575 174.831 36.2584 177.268 42.6177C182.647 56.6552 201.613 73.6981 201.613 73.6981C201.613 73.6981 194.792 69.2561 177.268 67.8815C177.268 60.509 174.743 58.7903 169.165 48.3881C162.193 35.3853 162.193 16.4237 162.381 14.7275Z" fill="#D9D9D9" stroke="black"/>
</svg>
