<svg width="132" height="67" viewBox="0 0 132 67" fill="none" xmlns="http://www.w3.org/2000/svg">
<path d="M51.6115 1.92112C45.7448 1.06779 26.5004 1.56556 17.6115 1.92112C17.6115 7.90513 13.2862 14.7903 10.674 20.8097C8.58426 25.6252 3.14024 34.7035 0.679443 38.6408C1.24731 40.5715 11.3554 59.9926 16.239 62.6048C21.1227 65.217 38.7266 68.0563 45.0783 65.217C50.1596 62.9455 61.3287 55.5827 66.2781 52.1853V10.9878C63.8781 6.58778 58.9448 2.98778 51.6115 1.92112Z" fill="#D9D9D9" stroke="black"/>
<path d="M79.6283 1.92112C85.4949 1.06779 104.739 1.56556 113.628 1.92112C113.628 7.90513 117.954 14.7903 120.566 20.8097C122.655 25.6252 128.1 34.7035 130.56 38.6408C129.992 40.5715 119.884 59.9926 115.001 62.6048C110.117 65.217 92.5132 68.0563 86.1615 65.217C81.0801 62.9455 69.911 55.5827 64.9616 52.1853V10.9878C67.3616 6.58778 72.2949 2.98778 79.6283 1.92112Z" fill="#D9D9D9" stroke="black"/>
</svg>
