<svg width="193" height="63" viewBox="0 0 193 63" fill="none" xmlns="http://www.w3.org/2000/svg">
<path d="M18.0509 7.79875C27.4094 0.98437 39.9706 0.189325 45.0814 0.6436C56.8932 7.23092 35.0868 41.1893 33.2696 44.4829C31.4524 47.7765 25.8873 51.5245 17.0286 54.2502C9.94158 56.4308 4.98982 60.3075 3.39982 61.9732C2.68052 58.7175 1.28735 50.8203 1.46907 45.2779C1.69621 38.3499 6.35273 16.3167 18.0509 7.79875Z" fill="#D9D9D9" stroke="black"/>
<path d="M175.189 7.79875C165.83 0.98437 153.269 0.189325 148.158 0.6436C136.347 7.23092 158.153 41.1893 159.97 44.4829C161.787 47.7765 167.352 51.5245 176.211 54.2502C183.298 56.4308 188.25 60.3075 189.84 61.9732C190.559 58.7175 191.952 50.8203 191.771 45.2779C191.544 38.3499 186.887 16.3167 175.189 7.79875Z" fill="#D9D9D9" stroke="black"/>
</svg>
