<svg width="267" height="90" viewBox="0 0 267 90" fill="none" xmlns="http://www.w3.org/2000/svg">
<path d="M20.9187 89.2143L11.1792 85.3865C14.6696 81.5586 22.2096 69.6921 28.9859 58.2369C34.4069 49.0727 52.6493 26.2376 61.0928 15.9656C59.4794 25.2158 53.4452 46.6203 42.2159 58.2369C30.9865 69.8535 23.3389 83.7288 20.9187 89.2143Z" fill="#D9D9D9" stroke="black"/>
<path d="M246.321 89.2143L256.061 85.3865C252.57 81.5586 245.03 69.6921 238.254 58.2369C232.833 49.0727 214.59 26.2376 206.147 15.9656C207.76 25.2158 213.795 46.6203 225.024 58.2369C236.253 69.8535 243.901 83.7288 246.321 89.2143Z" fill="#D9D9D9" stroke="black"/>
<path d="M39.3593 15.074C48.8543 11.2077 57.0414 13.2304 60.6946 5.97656C60.6946 9.59163 60.6946 12.2639 61.4128 15.074C48.589 17.8758 34.5833 29.1502 29.4663 35.4612C37.9379 23.6351 33.1065 17.62 39.3593 15.074Z" fill="#D9D9D9" stroke="black"/>
<path d="M10.9626 85.1804L6.65088 82.9445C10.2282 74.3846 23.7921 47.2247 30.1269 34.7148C42.2641 22.322 55.8386 16.5453 61.1087 15.2061C59.8163 18.2708 60.7895 16.8283 45.1388 36.4715C32.6182 52.1861 17.1378 75.4918 10.9626 85.1804Z" fill="#D9D9D9" stroke="black"/>
<path d="M227.88 15.074C218.385 11.2077 210.198 13.2304 206.545 5.97656C206.545 9.59163 206.545 12.2639 205.827 15.074C218.651 17.8758 232.656 29.1502 237.773 35.4612C229.302 23.6351 234.133 17.62 227.88 15.074Z" fill="#D9D9D9" stroke="black"/>
<path d="M256.277 85.1804L260.589 82.9445C257.012 74.3846 243.448 47.2247 237.113 34.7148C224.976 22.322 211.401 16.5453 206.131 15.2061C207.423 18.2708 206.45 16.8283 222.101 36.4715C234.622 52.1861 250.102 75.4918 256.277 85.1804Z" fill="#D9D9D9" stroke="black"/>
<path d="M18.3846 20.6687C23.3596 8.60809 30.0055 2.57786 32.7066 1.07031C32.7066 4.35265 34.386 5.46308 35.0837 8.95176C35.7814 12.4404 37.983 18.9727 32.7066 29.9026C28.4856 38.6465 13.2338 68.7226 6.13552 82.6676L0.859131 79.2756C12.7313 50.2548 12.1659 35.7445 18.3846 20.6687Z" fill="#D9D9D9" stroke="black"/>
<path d="M248.855 20.6687C243.88 8.60809 237.234 2.57786 234.533 1.07031C234.533 4.35265 232.854 5.46308 232.156 8.95176C231.458 12.4404 229.257 18.9727 234.533 29.9026C238.754 38.6465 254.006 68.7226 261.104 82.6676L266.381 79.2756C254.508 50.2548 255.074 35.7445 248.855 20.6687Z" fill="#D9D9D9" stroke="black"/>
</svg>
