<svg width="327" height="64" viewBox="0 0 327 64" fill="none" xmlns="http://www.w3.org/2000/svg">
<path d="M16.0673 40.7242C17.8759 38.8252 19.712 31.5789 19.9381 29.5065C19.5394 30.2587 18.5914 32.1763 17.9888 33.8289C17.2356 35.8945 13.0153 39.2091 12.1932 41.2725C11.3712 43.3358 9.05335 45.9374 7.47634 49.8847C5.89934 53.8319 0.172073 56.6129 -0.0970575 52.4802C-0.366188 48.3474 1.93729 47.6419 3.63296 43.9638C5.32863 40.2857 5.28556 36.5178 7.47634 33.8289C9.66713 31.1399 11.6586 29.0719 14.1669 26.1421C16.1735 23.7984 17.2494 20.839 17.5366 19.6523L14.9165 21.9693C13.8991 24.4562 6.45892 26.3682 3.63296 26.1421C0.807 25.9161 -1.79297 22.2988 1.93729 21.1685C5.66756 20.0381 9.62395 15.1774 11.6586 13.0297C13.6933 10.882 13.0151 8.73423 17.5366 7.7168C21.1538 6.90285 27.7848 3.16623 30.7622 1.49976C37.8158 6.20215 46.9644 10.0907 50.6569 11.4472C50.77 13.9341 50.9282 19.3147 50.6569 20.9425C50.3178 22.9772 46.8136 31.1159 44.6659 33.8289C42.5182 36.5418 41.1617 39.5938 41.0487 42.7589C40.9356 45.924 38.9009 48.7499 38.5618 51.2368C38.2227 53.7236 36.075 59.0364 34.0403 60.5059C32.0056 61.9754 30.31 61.0711 29.9709 59.0364C29.6318 57.0017 30.7622 56.6626 32.2317 52.4802C33.7012 48.2978 33.4751 48.0717 34.0403 44.7936C34.6055 41.5155 35.2837 37.8982 34.0403 37.8982C32.7969 37.8982 32.3447 42.7589 31.7795 45.3588C31.2143 47.9586 28.8405 51.4628 28.2753 53.6106C27.7101 55.7583 26.5798 63.5579 21.9452 62.8797C17.3106 62.2015 20.8148 58.2451 21.9452 55.7583C23.0756 53.2715 23.0756 50.5585 23.9799 48.0717C24.8842 45.5848 26.3537 43.6632 27.258 40.7242C28.1623 37.7852 27.9362 34.168 27.258 34.394C26.5798 34.6201 24.319 39.1417 23.0756 42.7589C21.8321 46.3761 19.0062 48.7499 17.9888 52.4802C16.9714 56.2105 13.0153 61.2972 10.0761 61.0711C7.13702 60.845 5.89381 57.3408 7.47634 55.7583C9.05888 54.1758 12.4501 49.7673 13.0153 48.7499C13.5804 47.7326 13.8065 43.098 16.0673 40.7242Z" fill="#D9D9D9" stroke="black"/>
<path d="M31.8999 19.7332C31.8519 21.9371 32.7908 27.1498 36.9304 30.3694" stroke="black"/>
<path d="M18.1016 19.0144C22.4615 19.4936 32.3886 18.6121 37.218 11.2529" stroke="black"/>
<path d="M311.172 40.7242C309.364 38.8252 307.528 31.5789 307.302 29.5065C307.7 30.2587 308.648 32.1763 309.251 33.8289C310.004 35.8945 314.224 39.2091 315.047 41.2725C315.869 43.3358 318.186 45.9374 319.763 49.8847C321.34 53.8319 327.068 56.6129 327.337 52.4802C327.606 48.3474 325.302 47.6419 323.607 43.9638C321.911 40.2857 321.954 36.5178 319.763 33.8289C317.573 31.1399 315.581 29.0719 313.073 26.1421C311.066 23.7984 309.99 20.839 309.703 19.6523L312.323 21.9693C313.341 24.4562 320.781 26.3682 323.607 26.1421C326.433 25.9161 329.033 22.2988 325.302 21.1685C321.572 20.0381 317.616 15.1774 315.581 13.0297C313.546 10.882 314.225 8.73423 309.703 7.7168C306.086 6.90285 299.455 3.16623 296.478 1.49976C289.424 6.20215 280.275 10.0907 276.583 11.4472C276.47 13.9341 276.312 19.3147 276.583 20.9425C276.922 22.9772 280.426 31.1159 282.574 33.8289C284.722 36.5418 286.078 39.5938 286.191 42.7589C286.304 45.924 288.339 48.7499 288.678 51.2368C289.017 53.7236 291.165 59.0364 293.199 60.5059C295.234 61.9754 296.93 61.0711 297.269 59.0364C297.608 57.0017 296.478 56.6626 295.008 52.4802C293.539 48.2978 293.765 48.0717 293.199 44.7936C292.634 41.5155 291.956 37.8982 293.199 37.8982C294.443 37.8982 294.895 42.7589 295.46 45.3588C296.025 47.9586 298.399 51.4628 298.964 53.6106C299.53 55.7583 300.66 63.5579 305.295 62.8797C309.929 62.2015 306.425 58.2451 305.295 55.7583C304.164 53.2715 304.164 50.5585 303.26 48.0717C302.356 45.5848 300.886 43.6632 299.982 40.7242C299.077 37.7852 299.304 34.168 299.982 34.394C300.66 34.6201 302.921 39.1417 304.164 42.7589C305.408 46.3761 308.233 48.7499 309.251 52.4802C310.268 56.2105 314.224 61.2972 317.164 61.0711C320.103 60.845 321.346 57.3408 319.763 55.7583C318.181 54.1758 314.79 49.7673 314.224 48.7499C313.659 47.7326 313.433 43.098 311.172 40.7242Z" fill="#D9D9D9" stroke="black"/>
<path d="M295.34 19.7332C295.388 21.9371 294.449 27.1498 290.309 30.3694" stroke="black"/>
<path d="M309.138 19.0144C304.778 19.4936 294.851 18.6121 290.022 11.2529" stroke="black"/>
</svg>
