<svg width="70" height="90" viewBox="0 0 70 90" fill="none" xmlns="http://www.w3.org/2000/svg">
<path d="M9.62933 15.2825C15.4899 3.22331 28.507 -0.167146 34.2829 -0.35498H35.1695C40.9454 -0.167146 53.9625 3.22331 59.8231 15.2825C65.6837 27.3416 64.1434 37.3064 62.6407 40.7814C64.1435 39.7952 67.3743 38.4146 68.2759 40.7814C69.403 43.7398 66.8671 57.8276 64.7539 58.2502C63.0634 58.5883 62.1711 57.9215 61.9363 57.5458C61.7484 59.8938 61.0628 65.5195 59.8231 69.2387C58.2735 73.8877 49.539 82.1994 47.5667 83.89C45.5945 85.5805 42.7769 88.3981 40.9455 88.539C39.4982 88.6503 36.2171 88.6352 34.8855 88.6348C33.546 88.6352 29.9541 88.6503 28.5069 88.539C26.6755 88.3981 23.8579 85.5805 21.8856 83.89C19.9134 82.1994 11.1789 73.8877 9.62933 69.2387C8.38964 65.5195 7.70398 59.8938 7.51611 57.5458C7.28129 57.9215 6.38902 58.5883 4.69849 58.2502C2.58533 57.8276 0.0494263 43.7398 1.17645 40.7814C2.07807 38.4146 5.30893 39.7952 6.81166 40.7814C5.30896 37.3064 3.76872 27.3416 9.62933 15.2825Z" fill="#D9D9D9"/>
<path d="M34.9343 88.6348C33.6356 88.6348 29.972 88.6517 28.5069 88.539C26.6755 88.3981 23.8579 85.5805 21.8856 83.89C19.9134 82.1994 11.1789 73.8877 9.62933 69.2387C8.38964 65.5195 7.70398 59.8938 7.51611 57.5458C7.28129 57.9215 6.38902 58.5883 4.69849 58.2502C2.58533 57.8276 0.0494263 43.7398 1.17645 40.7814C2.07807 38.4146 5.30893 39.7952 6.81166 40.7814C5.30896 37.3064 3.76872 27.3416 9.62933 15.2825C15.4899 3.22331 28.507 -0.167146 34.2829 -0.35498H35.1695C40.9454 -0.167146 53.9625 3.22331 59.8231 15.2825C65.6837 27.3416 64.1434 37.3064 62.6407 40.7814C64.1435 39.7952 67.3743 38.4146 68.2759 40.7814C69.403 43.7398 66.8671 57.8276 64.7539 58.2502C63.0634 58.5883 62.1711 57.9215 61.9363 57.5458C61.7484 59.8938 61.0628 65.5195 59.8231 69.2387C58.2735 73.8877 49.539 82.1994 47.5667 83.89C45.5945 85.5805 42.7769 88.3981 40.9455 88.539C39.4804 88.6517 36.1359 88.6348 34.8371 88.6348" stroke="black"/>
</svg>
