<svg width="182" height="237" viewBox="0 0 182 237" fill="none" xmlns="http://www.w3.org/2000/svg">
<path d="M66.6143 94.6847C65.7431 86.8058 62.4069 71.4277 60.8477 64.7236C58.0608 70.8709 53.3265 90.6621 51.3078 99.7893L56.4675 126.778C65.533 116.695 67.7033 104.533 66.6143 94.6847Z" fill="#D9D9D9" stroke="black"/>
<path d="M26.6497 45.9392C27.3912 44.6047 28.263 38.5466 28.6062 35.6843C27.9541 33.9811 27.6814 26.7347 31.8081 11.3753C35.9348 -3.98418 56.7455 1.55238 66.6349 6.24059C66.4117 13.1613 66.0991 27.717 66.6349 30.5746C67.3047 34.1466 69.5372 51.56 62.17 63.6155C56.2762 73.2598 51.8261 113.326 50.3378 132.153C49.8168 145.548 49.0876 174.035 50.3378 180.821C51.9005 189.305 48.775 189.081 50.3378 190.867C51.9005 192.653 57.4817 204.486 48.775 210.737C40.0683 216.988 41.631 217.82 38.2823 226.141C34.9336 234.462 28.6062 231.722 28.6062 233.285C28.6062 234.848 24.2399 236.41 18.1899 237.08C13.3499 237.616 14.8337 233.731 16.1806 231.722C12.4546 233.955 3.6788 233.508 1.66955 231.722C-0.339689 229.936 0.509472 222.239 7.38439 217.82C14.2593 213.4 14.7505 206.034 19.9067 197.195C25.0629 188.356 21.8709 192.039 21.8709 185.901C21.8709 179.762 24.2399 179.762 26.6497 169.695C29.0595 159.629 24.0546 63.549 24.2399 58.5441C24.4253 53.5392 25.7229 47.6074 26.6497 45.9392Z" fill="#D9D9D9" stroke="black"/>
<path d="M59.5841 69.2476C59.186 70.4456 58.3557 72.913 57.607 76.5144C53.0603 93.5856 45.1637 125.398 45.4412 135.168C45.6941 144.073 49.4243 163.762 49.5169 170.814C49.5164 170.997 49.5162 171.18 49.5162 171.364C49.5192 171.191 49.5194 171.007 49.5169 170.814C49.619 131.283 60.7256 125.859 57.4265 106.642C55.1507 93.3858 56.2438 83.0709 57.607 76.5144C58.3826 73.6023 59.0607 71.1192 59.5841 69.2476Z" fill="#D9D9D9" stroke="black"/>
<path d="M28.2655 68.4953C28.7369 61.6279 25.9114 53.2744 25.2922 51.0415C24.7029 59.6258 22.0769 65.0884 18.6328 76.7557C13.0348 95.7194 17.5308 101.723 20.7567 115.497C23.9827 129.272 21.8161 122.333 22.7774 135.336C23.5464 145.739 26.0063 153.852 27.2259 164.719C27.2259 152.055 27.6761 77.0796 28.2655 68.4953Z" fill="#D9D9D9" stroke="black"/>
<path d="M35.1182 85.6435C35.1182 62.2534 29.9429 51.1789 27.2864 45.6565C23.7952 51.9129 23.1053 63.0836 21.9052 80.5616C20.984 93.9797 25.6416 143.158 27.093 158.955C27.1119 160.186 27.1743 161.279 27.2866 162.211C27.6778 165.458 27.5321 163.734 27.093 158.955C26.8291 141.715 35.1181 97.2765 35.1182 85.6435Z" fill="#D9D9D9" stroke="black"/>
<path d="M41.1492 60.0205C43.546 60.3799 48.9867 60.2359 51.5752 56.7846C54.8108 52.4705 56.6084 44.5611 55.1703 40.2468" stroke="black"/>
<path d="M114.625 94.6847C115.497 86.8058 118.833 71.4277 120.392 64.7236C123.179 70.8709 127.913 90.6621 129.932 99.7893L124.772 126.778C115.707 116.695 113.536 104.533 114.625 94.6847Z" fill="#D9D9D9" stroke="black"/>
<path d="M154.59 45.9392C153.849 44.6047 152.977 38.5466 152.634 35.6843C153.286 33.9811 153.558 26.7347 149.432 11.3753C145.305 -3.98418 124.494 1.55238 114.605 6.24059C114.828 13.1613 115.141 27.717 114.605 30.5746C113.935 34.1466 111.703 51.56 119.07 63.6155C124.964 73.2598 129.414 113.326 130.902 132.153C131.423 145.548 132.152 174.035 130.902 180.821C129.339 189.305 132.465 189.081 130.902 190.867C129.339 192.653 123.758 204.486 132.465 210.737C141.171 216.988 139.609 217.82 142.957 226.141C146.306 234.462 152.634 231.722 152.634 233.285C152.634 234.848 157 236.41 163.05 237.08C167.89 237.616 166.406 233.731 165.059 231.722C168.785 233.955 177.561 233.508 179.57 231.722C181.579 229.936 180.73 222.239 173.855 217.82C166.98 213.4 166.489 206.034 161.333 197.195C156.177 188.356 159.369 192.039 159.369 185.901C159.369 179.762 157 179.762 154.59 169.695C152.18 159.629 157.185 63.549 157 58.5441C156.814 53.5392 155.517 47.6074 154.59 45.9392Z" fill="#D9D9D9" stroke="black"/>
<path d="M121.656 69.2476C122.054 70.4456 122.884 72.913 123.633 76.5144C128.179 93.5856 136.076 125.398 135.799 135.168C135.546 144.073 131.815 163.762 131.723 170.814C131.723 170.997 131.724 171.18 131.724 171.364C131.721 171.191 131.72 171.007 131.723 170.814C131.621 131.283 120.514 125.859 123.813 106.642C126.089 93.3858 124.996 83.0709 123.633 76.5144C122.857 73.6023 122.179 71.1192 121.656 69.2476Z" fill="#D9D9D9" stroke="black"/>
<path d="M152.974 68.4953C152.503 61.6279 155.328 53.2744 155.948 51.0415C156.537 59.6258 159.163 65.0884 162.607 76.7557C168.205 95.7194 163.709 101.723 160.483 115.497C157.257 129.272 159.424 122.333 158.462 135.336C157.693 145.739 155.233 153.852 154.014 164.719C154.014 152.055 153.564 77.0796 152.974 68.4953Z" fill="#D9D9D9" stroke="black"/>
<path d="M146.122 85.6435C146.122 62.2534 151.297 51.1789 153.953 45.6565C157.445 51.9129 158.134 63.0836 159.334 80.5616C160.256 93.9797 155.598 143.158 154.147 158.955C154.128 160.186 154.065 161.279 153.953 162.211C153.562 165.458 153.708 163.734 154.147 158.955C154.411 141.715 146.122 97.2765 146.122 85.6435Z" fill="#D9D9D9" stroke="black"/>
<path d="M140.091 60.0205C137.694 60.3799 132.253 60.2359 129.665 56.7846C126.429 52.4705 124.631 44.5611 126.069 40.2468" stroke="black"/>
<path d="M47.5776 193.021C46.5015 193.766 43.8029 194.809 41.6174 193.021" stroke="black"/>
<path d="M138.885 192.034C137.809 192.779 135.111 193.822 132.925 192.034" stroke="black"/>
</svg>
