<svg width="43" height="65" viewBox="0 0 43 65" fill="none" xmlns="http://www.w3.org/2000/svg">
<path d="M1.46997 2.62134L20.8752 62.4707L42.1186 2.62134H1.46997Z" fill="#D9D9D9" stroke="black"/>
<path d="M1.28485 19.6545V2.12427C3.97154 5.0788 10.2516 13.3345 13.8782 22.7212C17.5049 32.1079 20.6338 52.499 21.7449 61.5212C15.4782 54.8545 6.27818 40.5879 3.74485 33.7879C1.71818 28.3479 1.2604 22.099 1.28485 19.6545Z" fill="#D9D9D9" stroke="black"/>
<path d="M41.9549 19.6545V2.12427C39.2682 5.0788 32.9882 13.3345 29.3615 22.7212C25.7348 32.1079 22.606 52.499 21.4948 61.5212C27.7615 54.8545 36.9616 40.5879 39.4949 33.7879C41.5216 28.3479 41.9793 22.099 41.9549 19.6545Z" fill="#D9D9D9" stroke="black"/>
</svg>
