<svg width="125" height="213" viewBox="0 0 125 213" fill="none" xmlns="http://www.w3.org/2000/svg">
<path d="M9.0395 130.327C11.0971 123.88 12.0689 116.209 12.2976 113.18L62.7117 1.81152L113.126 113.18C113.354 116.209 114.326 123.88 116.384 130.327C118.956 138.387 119.642 152.962 116.384 159.478C113.126 165.994 91.8626 183.485 83.2888 193.43C76.4298 201.387 68.7705 208.978 65.7982 211.778H59.6251C56.6529 208.978 48.9936 201.387 42.1346 193.43C33.5608 183.485 12.2976 165.994 9.0395 159.478C5.78145 152.962 6.46747 138.387 9.0395 130.327Z" fill="#D9D9D9" stroke="black"/>
<path d="M10.8469 110.046C9.6819 107.57 8.12322 100.757 7.4895 97.6597C6.21425 95.1074 5.59702 88.6491 5.44781 85.739C3.40612 81.876 3.2891 75.3999 1.69845 70.0599C0.42594 65.7878 2.69376 50.7696 4.1497 43.3665C6.12552 46.9384 9.60907 53.3596 14.1236 55.2528C18.6381 57.146 32.9947 58.3474 39.6087 58.7115V163.383C37.9097 161.259 33.82 156.611 31.053 155.009C27.5943 153.007 22.1332 141.902 19.9488 136.259C17.7643 130.616 12.3032 113.141 10.8469 110.046Z" fill="#D9D9D9" stroke="black"/>
<path d="M14.3542 100.3C16.2357 102.822 20.8874 109.571 24.4421 116.393C28.8856 124.919 36.8117 134.286 39.9341 135.728" stroke="black"/>
<path d="M15.9155 92.2539C19.3983 95.1762 27.0363 102.03 29.7263 106.065C32.4163 110.1 37.5723 115.752 39.814 118.074" stroke="black"/>
<path d="M19.5183 81.3254C21.5599 83.1669 26.1475 87.4502 28.165 89.8521C30.687 92.8544 38.3729 99.5796 39.4537 99.9399" stroke="black"/>
<path d="M6.66207 96.603C5.72484 95.4651 5.8811 89.9367 6.07637 87.3147C6.87966 89.7916 9.4235 90.8571 10.595 91.0802C10.6787 91.3033 10.8962 92.1345 11.0971 93.6742C11.2979 95.2139 13.5237 98.7786 14.6115 100.368C10.7624 99.6153 7.8336 98.0255 6.66207 96.603Z" fill="#D9D9D9" stroke="black"/>
<path d="M5.09534 84.7339C4.46253 82.8354 5.35901 77.6149 5.88635 75.2419C6.51917 77.8342 9.51227 80.4656 10.9297 81.4572C11.0692 81.8756 11.4485 83.1167 11.8502 84.7339C12.3522 86.7554 16.4525 92.5864 15.3646 92.0843C14.2768 91.5823 10.846 91.5823 8.67042 90.4108C6.49479 89.2393 5.88635 87.107 5.09534 84.7339Z" fill="#D9D9D9" stroke="black"/>
<path d="M5.56991 74.4509C5.69651 73.0587 6.67735 61.4258 7.15194 55.7834C7.15194 59.9599 11.0541 66.5938 13.0052 69.3886C14.5238 74.9573 18.0675 79.9353 19.6495 81.7282C17.5929 80.779 13.3216 82.8356 11.1068 81.7282C8.89205 80.6208 5.41166 76.1912 5.56991 74.4509Z" fill="#D9D9D9" stroke="black"/>
<path d="M7.37947 59.0391C6.65242 55.9488 7.07653 50.3284 7.37947 47.9045C8.25048 49.1164 10.4924 51.9719 12.4921 53.6989C14.4917 55.4259 16.961 56.1606 17.9457 56.3121C18.1729 57.5998 18.6501 60.9477 18.741 64.0381C18.8546 67.9011 22.3768 70.2871 21.127 70.2871C19.8772 70.2871 14.1963 71.0824 13.7419 70.2871C13.2874 69.4917 8.2883 62.9019 7.37947 59.0391Z" fill="#D9D9D9" stroke="black"/>
<path d="M21.4563 70.0039C25.2137 72.6169 34.1215 78.2033 39.6938 79.6443" stroke="black"/>
<path d="M114.393 110.046C115.558 107.57 117.117 100.757 117.75 97.6597C119.025 95.1074 119.643 88.6491 119.792 85.739C121.834 81.876 121.951 75.3999 123.541 70.0599C124.814 65.7878 122.546 50.7696 121.09 43.3665C119.114 46.9384 115.631 53.3596 111.116 55.2528C106.602 57.146 92.245 58.3474 85.631 58.7115V163.383C87.33 161.259 91.4198 156.611 94.1867 155.009C97.6454 153.007 103.107 141.902 105.291 136.259C107.475 130.616 112.937 113.141 114.393 110.046Z" fill="#D9D9D9" stroke="black"/>
<path d="M110.885 100.3C109.004 102.822 104.352 109.571 100.798 116.393C96.3542 124.919 88.4281 134.286 85.3056 135.728" stroke="black"/>
<path d="M109.324 92.2539C105.841 95.1762 98.2034 102.03 95.5134 106.065C92.8234 110.1 87.6675 115.752 85.4257 118.074" stroke="black"/>
<path d="M105.721 81.3254C103.68 83.1669 99.0922 87.4502 97.0747 89.8521C94.5528 92.8544 86.8669 99.5796 85.786 99.9399" stroke="black"/>
<path d="M118.578 96.603C119.515 95.4651 119.359 89.9367 119.163 87.3147C118.36 89.7916 115.816 90.8571 114.645 91.0802C114.561 91.3033 114.343 92.1345 114.143 93.6742C113.942 95.2139 111.716 98.7786 110.628 100.368C114.477 99.6153 117.406 98.0255 118.578 96.603Z" fill="#D9D9D9" stroke="black"/>
<path d="M120.144 84.7339C120.777 82.8354 119.881 77.6149 119.353 75.2419C118.721 77.8342 115.727 80.4656 114.31 81.4572C114.171 81.8756 113.791 83.1167 113.39 84.7339C112.888 86.7554 108.787 92.5864 109.875 92.0843C110.963 91.5823 114.394 91.5823 116.569 90.4108C118.745 89.2393 119.353 87.107 120.144 84.7339Z" fill="#D9D9D9" stroke="black"/>
<path d="M119.67 74.4509C119.543 73.0587 118.562 61.4258 118.088 55.7834C118.088 59.9599 114.186 66.5938 112.235 69.3886C110.716 74.9573 107.172 79.9353 105.59 81.7282C107.647 80.779 111.918 82.8356 114.133 81.7282C116.348 80.6208 119.828 76.1912 119.67 74.4509Z" fill="#D9D9D9" stroke="black"/>
<path d="M117.86 59.0391C118.587 55.9488 118.163 50.3284 117.86 47.9045C116.989 49.1164 114.747 51.9719 112.748 53.6989C110.748 55.4259 108.279 56.1606 107.294 56.3121C107.067 57.5998 106.59 60.9477 106.499 64.0381C106.385 67.9011 102.863 70.2871 104.113 70.2871C105.363 70.2871 111.043 71.0824 111.498 70.2871C111.952 69.4917 116.951 62.9019 117.86 59.0391Z" fill="#D9D9D9" stroke="black"/>
<path d="M103.783 70.0039C100.026 72.6169 91.1183 78.2033 85.5459 79.6443" stroke="black"/>
</svg>
