<svg width="144" height="170" viewBox="0 0 144 170" fill="none" xmlns="http://www.w3.org/2000/svg">
<path d="M49.916 72.5579C43.5791 49.9559 39.1783 28.8152 37.77 21.0701L66.0224 51.1706C71.5672 57.7717 66.2864 99.7541 62.8539 106.355C60.1079 111.636 53.0845 133.199 49.916 143.321C52.5565 131.703 57.8371 100.81 49.916 72.5579Z" fill="#D9D9D9" stroke="black"/>
<path d="M36.4499 64.3726C32.4366 45.5728 31.6091 24.8546 31.697 16.8455L39.0903 22.1262C61.2697 72.0299 57.045 113.22 53.3484 127.214C49.6519 141.208 47.8036 178.438 48.3317 167.084C48.8598 155.731 42.5228 152.562 45.1632 134.872C47.8036 117.181 41.4666 87.8723 36.4499 64.3726Z" fill="#D9D9D9" stroke="black"/>
<path d="M6.0851 66.2209C11.5772 41.5067 23.3357 20.718 28.5285 13.4128L53.3484 37.7046C45.5328 47.8437 43.2269 66.0449 43.0509 73.8781C40.3048 111.478 26.9443 142.001 20.6073 152.562C17.7029 141.473 -0.779983 97.1137 6.0851 66.2209Z" fill="#D9D9D9" stroke="black"/>
<path d="M1.66994 70.8894C4.34408 46.2492 13.7672 14.1438 18.1446 1.17114L31.169 16.0532C37.242 46.946 20.5321 136.788 16.4731 141.802C13.226 145.813 10.5041 157.958 9.54905 163.529C9.54905 158.992 8.1165 149.203 6.2064 141.802C4.29631 134.4 -1.67273 101.69 1.66994 70.8894Z" fill="#D9D9D9" stroke="black"/>
<path d="M33.1857 156.625C30.4846 152.573 27.9187 133.855 39.2633 91.393C45.9362 66.4174 44.9927 47.7871 41.7099 35.3043C41.1408 33.2858 40.5468 31.3991 39.9314 29.6635C37.8357 24.0464 35.3158 20.188 33.1857 18.0579C35.5872 19.7667 37.8786 23.8745 39.9314 29.6635C40.5715 31.3793 41.1721 33.2593 41.7099 35.3043C51.2251 69.0529 53.7771 139.637 33.1857 156.625Z" fill="#D9D9D9" stroke="black"/>
<path d="M93.3237 72.5579C99.6606 49.9559 104.061 28.8152 105.47 21.0701L77.2174 51.1706C71.6725 57.7717 76.9533 99.7541 80.3858 106.355C83.1319 111.636 90.1553 133.199 93.3237 143.321C90.6832 131.703 85.4026 100.81 93.3237 72.5579Z" fill="#D9D9D9" stroke="black"/>
<path d="M106.79 64.3726C110.803 45.5728 111.631 24.8546 111.543 16.8455L104.149 22.1262C81.9701 72.0299 86.1947 113.22 89.8913 127.214C93.5879 141.208 95.4362 178.438 94.9081 167.084C94.38 155.731 100.717 152.562 98.0766 134.872C95.4362 117.181 101.773 87.8723 106.79 64.3726Z" fill="#D9D9D9" stroke="black"/>
<path d="M137.155 66.2209C131.663 41.5067 119.904 20.718 114.711 13.4128L89.8913 37.7046C97.7069 47.8437 100.013 66.0449 100.189 73.8781C102.935 111.478 116.295 142.001 122.632 152.562C125.537 141.473 144.02 97.1137 137.155 66.2209Z" fill="#D9D9D9" stroke="black"/>
<path d="M141.57 70.8894C138.896 46.2492 129.473 14.1438 125.095 1.17114L112.071 16.0532C105.998 46.946 122.708 136.788 126.767 141.802C130.014 145.813 132.736 157.958 133.691 163.529C133.691 158.992 135.123 149.203 137.033 141.802C138.943 134.4 144.912 101.69 141.57 70.8894Z" fill="#D9D9D9" stroke="black"/>
<path d="M110.054 156.625C112.755 152.573 115.321 133.855 103.976 91.393C97.3036 66.4174 98.247 47.7871 101.53 35.3043C102.099 33.2858 102.693 31.3991 103.308 29.6635C105.404 24.0464 107.924 20.188 110.054 18.0579C107.653 19.7667 105.361 23.8745 103.308 29.6635C102.668 31.3793 102.068 33.2593 101.53 35.3043C92.0147 69.0529 89.4627 139.637 110.054 156.625Z" fill="#D9D9D9" stroke="black"/>
</svg>
