<svg width="64" height="155" viewBox="0 0 64 155" fill="none" xmlns="http://www.w3.org/2000/svg">
<path d="M2.71825 66.167C4.47053 63.59 7.48564 63.5472 8.77416 63.8479H23.9782C28.1014 63.8479 29.3899 66.167 30.8072 67.4555C31.941 68.4864 31.8809 73.9838 31.7091 76.6037V88.0712C30.9876 90.7512 26.7699 91.9366 24.7513 92.1943H10.4492C8.90303 92.1943 7.09917 91.5501 3.74912 89.7462C1.06909 88.3031 0.656755 84.85 0.785595 83.3038V73.8979C0.699696 72.3947 0.965969 68.744 2.71825 66.167Z" fill="#D9D9D9" stroke="black"/>
<path d="M4.0657 94.3552C6.14442 92.0941 8.61223 91.7353 9.84105 92.0361H24.3408C28.2729 92.0361 29.5017 94.3552 30.8533 95.6437C31.9347 96.6745 31.8773 102.172 31.7135 104.792V116.259C31.0254 118.939 32.7784 153.914 30.8533 154.172H24.3408C22.8662 154.172 11.9953 130.98 8.51639 120.929C6.83331 116.067 5.34793 112.901 4.0657 109.94C2.78315 106.979 2.03026 104.427 2.03027 101.658C2.03029 98.4247 2.3816 96.187 4.0657 94.3552Z" fill="#D9D9D9" stroke="black"/>
<path d="M60.5215 66.167C58.7692 63.59 55.7541 63.5472 54.4656 63.8479H39.2615C35.1384 63.8479 33.8499 66.167 32.4326 67.4555C31.2987 68.4864 31.3588 73.9838 31.5306 76.6037V88.0712C32.2522 90.7512 36.4698 91.9366 38.4884 92.1943H52.7905C54.3367 92.1943 56.1406 91.5501 59.4906 89.7462C62.1707 88.3031 62.583 84.85 62.4542 83.3038V73.8979C62.5401 72.3947 62.2738 68.744 60.5215 66.167Z" fill="#D9D9D9" stroke="black"/>
<path d="M59.174 94.3552C57.0953 92.0941 54.6275 91.7353 53.3987 92.0361H38.899C34.9669 92.0361 33.7381 94.3552 32.3864 95.6437C31.3051 96.6745 31.3624 102.172 31.5263 104.792V116.259C32.2144 118.939 30.4613 153.914 32.3864 154.172H38.899C40.3735 154.172 51.2445 130.98 54.7234 120.929C56.4064 116.067 57.8918 112.901 59.174 109.94C60.4566 106.979 61.2095 104.427 61.2095 101.658C61.2095 98.4247 60.8582 96.187 59.174 94.3552Z" fill="#D9D9D9" stroke="black"/>
<path d="M2.71825 37.6936C4.47053 35.1166 7.48564 35.0738 8.77416 35.3745H23.9782C28.1014 35.3745 29.3899 37.6936 30.8072 38.9821C31.941 40.013 31.8809 45.5105 31.7091 48.1303V59.5978C30.9876 62.2779 26.7699 63.4633 24.7513 63.7209H10.4492C8.90303 63.7209 7.09917 63.0767 3.74912 61.2728C1.06909 59.8297 0.656755 56.3766 0.785595 54.8304V45.4245C0.699696 43.9213 0.965969 40.2706 2.71825 37.6936Z" fill="#D9D9D9" stroke="black"/>
<path d="M6.26083 16.7207C9.89665 14.0848 24.7535 5.48358 31.7274 1.51245V30.8092L27.2799 35.3539H6.94236C5.46535 34.5965 2.37498 32.8543 1.82961 31.9454C1.14791 30.8092 0.239018 27.2871 0.57987 25.4692C0.920723 23.6513 1.71604 20.0156 6.26083 16.7207Z" fill="#D9D9D9" stroke="black"/>
<path d="M60.5215 37.6936C58.7692 35.1166 55.7541 35.0738 54.4656 35.3745H39.2615C35.1384 35.3745 33.8499 37.6936 32.4326 38.9821C31.2987 40.013 31.3588 45.5105 31.5306 48.1303V59.5978C32.2522 62.2779 36.4698 63.4633 38.4884 63.7209H52.7905C54.3367 63.7209 56.1406 63.0767 59.4906 61.2728C62.1707 59.8297 62.583 56.3766 62.4542 54.8304V45.4245C62.5401 43.9213 62.2738 40.2706 60.5215 37.6936Z" fill="#D9D9D9" stroke="black"/>
<path d="M56.9789 16.7207C53.3431 14.0848 38.4863 5.48358 31.5124 1.51245V30.8092L35.9599 35.3539H56.2974C57.7744 34.5965 60.8648 32.8543 61.4101 31.9454C62.0918 30.8092 63.0007 27.2871 62.6599 25.4692C62.319 23.6513 61.5237 20.0156 56.9789 16.7207Z" fill="#D9D9D9" stroke="black"/>
</svg>
