<svg width="105" height="44" viewBox="0 0 105 44" fill="none" xmlns="http://www.w3.org/2000/svg">
<path d="M1.08374 25.2545L32.2839 1.65454C32.2839 9.23898 34.9261 14.6269 36.6297 19.0563C37.8599 22.2546 44.6724 32.7872 48.883 39.0958C49.3433 39.4949 49.768 39.9314 50.145 40.4081C53.2342 44.315 51.4321 42.4146 50.145 40.976C49.7615 40.4081 49.3374 39.7765 48.883 39.0958C45.5711 36.2236 40.419 35.2834 37.9926 35.1837C26.0901 34.2751 10.8485 34.8051 4.71557 35.1837C5.89674 30.5499 2.7865 26.6335 1.08374 25.2545Z" fill="#D9D9D9" stroke="black"/>
<path d="M104.156 25.2545L72.9558 1.65454C72.9558 9.23898 70.3136 14.6269 68.61 19.0563C67.3799 22.2546 60.5673 32.7872 56.3567 39.0958C55.8964 39.4949 55.4717 39.9314 55.0948 40.4081C52.0056 44.315 53.8076 42.4146 55.0948 40.976C55.4783 40.4081 55.9023 39.7765 56.3567 39.0958C59.6686 36.2236 64.8207 35.2834 67.2471 35.1837C79.1496 34.2751 94.3912 34.8051 100.524 35.1837C99.343 30.5499 102.453 26.6335 104.156 25.2545Z" fill="#D9D9D9" stroke="black"/>
</svg>
