<svg width="327" height="652" viewBox="0 0 327 652" fill="none" xmlns="http://www.w3.org/2000/svg">
<g clip-path="url(#clip0_4363_1204)">
<path d="M110.04 264.327C112.097 257.88 113.069 250.209 113.298 247.18L163.712 135.812L214.126 247.18C214.354 250.209 215.326 257.88 217.384 264.327C219.956 272.387 220.642 286.962 217.384 293.478C214.126 299.994 192.863 317.485 184.289 327.43C177.43 335.387 169.77 342.978 166.798 345.778H160.625C157.653 342.978 149.994 335.387 143.135 327.43C134.561 317.485 113.298 299.994 110.04 293.478C106.781 286.962 107.467 272.387 110.04 264.327Z" fill="#D9D9D9" stroke="black"/>
<path d="M111.847 244.046C110.682 241.57 109.123 234.757 108.49 231.66C107.214 229.107 106.597 222.649 106.448 219.739C104.406 215.876 104.289 209.4 102.698 204.06C101.426 199.788 103.694 184.77 105.15 177.366C107.126 180.938 110.609 187.36 115.124 189.253C119.638 191.146 133.995 192.347 140.609 192.711V297.383C138.91 295.259 134.82 290.611 132.053 289.009C128.594 287.007 123.133 275.902 120.949 270.259C118.764 264.616 113.303 247.141 111.847 244.046Z" fill="#D9D9D9" stroke="black"/>
<path d="M115.354 234.3C117.236 236.822 121.887 243.571 125.442 250.393C129.886 258.919 137.812 268.286 140.934 269.728" stroke="black"/>
<path d="M116.916 226.254C120.398 229.176 128.036 236.03 130.726 240.065C133.416 244.1 138.572 249.752 140.814 252.074" stroke="black"/>
<path d="M120.518 215.325C122.56 217.167 127.148 221.45 129.165 223.852C131.687 226.854 139.373 233.58 140.454 233.94" stroke="black"/>
<path d="M107.662 230.603C106.725 229.465 106.881 223.937 107.076 221.315C107.88 223.792 110.424 224.857 111.595 225.08C111.679 225.303 111.896 226.135 112.097 227.674C112.298 229.214 114.524 232.779 115.612 234.368C111.762 233.615 108.834 232.025 107.662 230.603Z" fill="#D9D9D9" stroke="black"/>
<path d="M106.095 218.734C105.463 216.835 106.359 211.615 106.886 209.242C107.519 211.834 110.512 214.466 111.93 215.457C112.069 215.876 112.449 217.117 112.85 218.734C113.352 220.755 117.452 226.586 116.365 226.084C115.277 225.582 111.846 225.582 109.67 224.411C107.495 223.239 106.886 221.107 106.095 218.734Z" fill="#D9D9D9" stroke="black"/>
<path d="M106.57 208.451C106.697 207.059 107.677 195.426 108.152 189.783C108.152 193.96 112.054 200.594 114.005 203.389C115.524 208.957 119.068 213.935 120.65 215.728C118.593 214.779 114.322 216.836 112.107 215.728C109.892 214.621 106.412 210.191 106.57 208.451Z" fill="#D9D9D9" stroke="black"/>
<path d="M108.379 193.039C107.652 189.949 108.077 184.328 108.379 181.905C109.25 183.116 111.492 185.972 113.492 187.699C115.492 189.426 117.961 190.161 118.946 190.312C119.173 191.6 119.65 194.948 119.741 198.038C119.855 201.901 123.377 204.287 122.127 204.287C120.877 204.287 115.196 205.082 114.742 204.287C114.287 203.492 109.288 196.902 108.379 193.039Z" fill="#D9D9D9" stroke="black"/>
<path d="M122.456 204.004C126.214 206.617 135.121 212.203 140.694 213.644" stroke="black"/>
<path d="M215.393 244.046C216.558 241.57 218.117 234.757 218.75 231.66C220.025 229.107 220.643 222.649 220.792 219.739C222.834 215.876 222.951 209.4 224.541 204.06C225.814 199.788 223.546 184.77 222.09 177.366C220.114 180.938 216.631 187.36 212.116 189.253C207.602 191.146 193.245 192.347 186.631 192.711V297.383C188.33 295.259 192.42 290.611 195.187 289.009C198.645 287.007 204.107 275.902 206.291 270.259C208.475 264.616 213.937 247.141 215.393 244.046Z" fill="#D9D9D9" stroke="black"/>
<path d="M211.885 234.3C210.004 236.822 205.352 243.571 201.798 250.393C197.354 258.919 189.428 268.286 186.306 269.728" stroke="black"/>
<path d="M210.324 226.254C206.841 229.176 199.203 236.03 196.513 240.065C193.823 244.1 188.667 249.752 186.426 252.074" stroke="black"/>
<path d="M206.721 215.325C204.68 217.167 200.092 221.45 198.075 223.852C195.553 226.854 187.867 233.58 186.786 233.94" stroke="black"/>
<path d="M219.578 230.603C220.515 229.465 220.359 223.937 220.163 221.315C219.36 223.792 216.816 224.857 215.645 225.08C215.561 225.303 215.343 226.135 215.143 227.674C214.942 229.214 212.716 232.779 211.628 234.368C215.477 233.615 218.406 232.025 219.578 230.603Z" fill="#D9D9D9" stroke="black"/>
<path d="M221.144 218.734C221.777 216.835 220.881 211.615 220.353 209.242C219.721 211.834 216.727 214.466 215.31 215.457C215.171 215.876 214.791 217.117 214.39 218.734C213.888 220.755 209.787 226.586 210.875 226.084C211.963 225.582 215.394 225.582 217.569 224.411C219.745 223.239 220.353 221.107 221.144 218.734Z" fill="#D9D9D9" stroke="black"/>
<path d="M220.67 208.451C220.543 207.059 219.562 195.426 219.088 189.783C219.088 193.96 215.186 200.594 213.235 203.389C211.716 208.957 208.172 213.935 206.59 215.728C208.647 214.779 212.918 216.836 215.133 215.728C217.348 214.621 220.828 210.191 220.67 208.451Z" fill="#D9D9D9" stroke="black"/>
<path d="M218.86 193.039C219.587 189.949 219.163 184.328 218.86 181.905C217.989 183.116 215.747 185.972 213.748 187.699C211.748 189.426 209.279 190.161 208.294 190.312C208.067 191.6 207.59 194.948 207.499 198.038C207.385 201.901 203.863 204.287 205.113 204.287C206.363 204.287 212.043 205.082 212.498 204.287C212.952 203.492 217.951 196.902 218.86 193.039Z" fill="#D9D9D9" stroke="black"/>
<path d="M204.783 204.004C201.026 206.617 192.118 212.203 186.546 213.644" stroke="black"/>
<path d="M139.614 509.685C138.743 501.806 135.407 486.428 133.848 479.724C131.061 485.871 126.327 505.662 124.308 514.789L129.468 541.778C138.533 531.695 140.703 519.533 139.614 509.685Z" fill="#D9D9D9" stroke="black"/>
<path d="M99.6497 460.939C100.391 459.605 101.263 453.547 101.606 450.684C100.954 448.981 100.681 441.735 104.808 426.375C108.935 411.016 129.745 416.552 139.635 421.241C139.412 428.161 139.099 442.717 139.635 445.575C140.305 449.147 142.537 466.56 135.17 478.615C129.276 488.26 124.826 528.326 123.338 547.153C122.817 560.548 122.088 589.035 123.338 595.821C124.901 604.305 121.775 604.081 123.338 605.867C124.901 607.653 130.482 619.486 121.775 625.737C113.068 631.988 114.631 632.82 111.282 641.141C107.934 649.462 101.606 646.722 101.606 648.285C101.606 649.848 97.2399 651.41 91.1899 652.08C86.3499 652.616 87.8337 648.731 89.1806 646.722C85.4546 648.955 76.6788 648.508 74.6696 646.722C72.6603 644.936 73.5095 637.239 80.3844 632.82C87.2593 628.4 87.7505 621.034 92.9067 612.195C98.0629 603.356 94.8709 607.039 94.8709 600.901C94.8709 594.762 97.2399 594.762 99.6497 584.695C102.059 574.629 97.0546 478.549 97.2399 473.544C97.4253 468.539 98.7229 462.607 99.6497 460.939Z" fill="#D9D9D9" stroke="black"/>
<path d="M132.584 484.248C132.186 485.446 131.356 487.913 130.607 491.514C126.06 508.586 118.164 540.398 118.441 550.168C118.694 559.073 122.424 578.762 122.517 585.814C122.516 585.997 122.516 586.18 122.516 586.364C122.519 586.191 122.519 586.007 122.517 585.814C122.619 546.283 133.726 540.859 130.427 521.642C128.151 508.386 129.244 498.071 130.607 491.514C131.383 488.602 132.061 486.119 132.584 484.248Z" fill="#D9D9D9" stroke="black"/>
<path d="M101.265 483.495C101.737 476.628 98.9114 468.274 98.2922 466.042C97.7029 474.626 95.0769 480.088 91.6328 491.756C86.0348 510.719 90.5308 516.723 93.7567 530.497C96.9827 544.272 94.8161 537.333 95.7774 550.336C96.5464 560.739 99.0063 568.852 100.226 579.719C100.226 567.055 100.676 492.08 101.265 483.495Z" fill="#D9D9D9" stroke="black"/>
<path d="M108.118 500.644C108.118 477.253 102.943 466.179 100.286 460.657C96.7952 466.913 96.1053 478.084 94.9052 495.562C93.984 508.98 98.6416 558.158 100.093 573.955C100.112 575.186 100.174 576.279 100.287 577.211C100.678 580.458 100.532 578.734 100.093 573.955C99.8291 556.715 108.118 512.277 108.118 500.644Z" fill="#D9D9D9" stroke="black"/>
<path d="M114.149 475.02C116.546 475.38 121.987 475.236 124.575 471.785C127.811 467.471 129.608 459.561 128.17 455.247" stroke="black"/>
<path d="M187.625 509.685C188.497 501.806 191.833 486.428 193.392 479.724C196.179 485.871 200.913 505.662 202.932 514.789L197.772 541.778C188.707 531.695 186.536 519.533 187.625 509.685Z" fill="#D9D9D9" stroke="black"/>
<path d="M227.59 460.939C226.849 459.605 225.977 453.547 225.634 450.684C226.286 448.981 226.558 441.735 222.432 426.375C218.305 411.016 197.494 416.552 187.605 421.241C187.828 428.161 188.141 442.717 187.605 445.575C186.935 449.147 184.703 466.56 192.07 478.615C197.964 488.26 202.414 528.326 203.902 547.153C204.423 560.548 205.152 589.035 203.902 595.821C202.339 604.305 205.465 604.081 203.902 605.867C202.339 607.653 196.758 619.486 205.465 625.737C214.171 631.988 212.609 632.82 215.957 641.141C219.306 649.462 225.634 646.722 225.634 648.285C225.634 649.848 230 651.41 236.05 652.08C240.89 652.616 239.406 648.731 238.059 646.722C241.785 648.955 250.561 648.508 252.57 646.722C254.579 644.936 253.73 637.239 246.855 632.82C239.98 628.4 239.489 621.034 234.333 612.195C229.177 603.356 232.369 607.039 232.369 600.901C232.369 594.762 230 594.762 227.59 584.695C225.18 574.629 230.185 478.549 230 473.544C229.814 468.539 228.517 462.607 227.59 460.939Z" fill="#D9D9D9" stroke="black"/>
<path d="M194.656 484.248C195.054 485.446 195.884 487.913 196.633 491.514C201.179 508.586 209.076 540.398 208.799 550.168C208.546 559.073 204.815 578.762 204.723 585.814C204.723 585.997 204.724 586.18 204.724 586.364C204.721 586.191 204.72 586.007 204.723 585.814C204.621 546.283 193.514 540.859 196.813 521.642C199.089 508.386 197.996 498.071 196.633 491.514C195.857 488.602 195.179 486.119 194.656 484.248Z" fill="#D9D9D9" stroke="black"/>
<path d="M225.974 483.495C225.503 476.628 228.328 468.274 228.948 466.042C229.537 474.626 232.163 480.088 235.607 491.756C241.205 510.719 236.709 516.723 233.483 530.497C230.257 544.272 232.424 537.333 231.462 550.336C230.693 560.739 228.233 568.852 227.014 579.719C227.014 567.055 226.564 492.08 225.974 483.495Z" fill="#D9D9D9" stroke="black"/>
<path d="M219.122 500.644C219.122 477.253 224.297 466.179 226.953 460.657C230.445 466.913 231.134 478.084 232.334 495.562C233.256 508.98 228.598 558.158 227.147 573.955C227.128 575.186 227.065 576.279 226.953 577.211C226.562 580.458 226.708 578.734 227.147 573.955C227.411 556.715 219.122 512.277 219.122 500.644Z" fill="#D9D9D9" stroke="black"/>
<path d="M213.091 475.02C210.694 475.38 205.253 475.236 202.665 471.785C199.429 467.471 197.631 459.561 199.069 455.247" stroke="black"/>
<path d="M141.916 364.558C135.579 341.956 131.178 320.815 129.77 313.07L158.022 343.171C163.567 349.772 158.286 391.754 154.854 398.355C152.108 403.636 145.084 425.199 141.916 435.321C144.557 423.703 149.837 392.81 141.916 364.558Z" fill="#D9D9D9" stroke="black"/>
<path d="M128.45 356.373C124.437 337.573 123.609 316.855 123.697 308.845L131.09 314.126C153.27 364.03 149.045 405.22 145.348 419.214C141.652 433.208 139.804 470.438 140.332 459.084C140.86 447.731 134.523 444.562 137.163 426.872C139.804 409.181 133.467 379.872 128.45 356.373Z" fill="#D9D9D9" stroke="black"/>
<path d="M98.0851 358.221C103.577 333.507 115.336 312.718 120.528 305.413L145.348 329.705C137.533 339.844 135.227 358.045 135.051 365.878C132.305 403.478 118.944 434.001 112.607 444.562C109.703 433.473 91.22 389.114 98.0851 358.221Z" fill="#D9D9D9" stroke="black"/>
<path d="M93.6699 362.889C96.3441 338.249 105.767 306.144 110.145 293.171L123.169 308.053C129.242 338.946 112.532 428.788 108.473 433.802C105.226 437.813 102.504 449.958 101.549 455.529C101.549 450.992 100.116 441.203 98.2064 433.802C96.2963 426.4 90.3273 393.69 93.6699 362.889Z" fill="#D9D9D9" stroke="black"/>
<path d="M125.186 448.625C122.485 444.573 119.919 425.855 131.263 383.393C137.936 358.417 136.993 339.787 133.71 327.304C133.141 325.286 132.547 323.399 131.931 321.663C129.836 316.046 127.316 312.188 125.186 310.058C127.587 311.767 129.879 315.875 131.931 321.663C132.572 323.379 133.172 325.259 133.71 327.304C143.225 361.053 145.777 431.637 125.186 448.625Z" fill="#D9D9D9" stroke="black"/>
<path d="M185.324 364.558C191.661 341.956 196.061 320.815 197.47 313.07L169.217 343.171C163.673 349.772 168.953 391.754 172.386 398.355C175.132 403.636 182.155 425.199 185.324 435.321C182.683 423.703 177.403 392.81 185.324 364.558Z" fill="#D9D9D9" stroke="black"/>
<path d="M198.79 356.373C202.803 337.573 203.631 316.855 203.543 308.845L196.149 314.126C173.97 364.03 178.195 405.22 181.891 419.214C185.588 433.208 187.436 470.438 186.908 459.084C186.38 447.731 192.717 444.562 190.077 426.872C187.436 409.181 193.773 379.872 198.79 356.373Z" fill="#D9D9D9" stroke="black"/>
<path d="M229.155 358.221C223.663 333.507 211.904 312.718 206.711 305.413L181.891 329.705C189.707 339.844 192.013 358.045 192.189 365.878C194.935 403.478 208.295 434.001 214.632 444.562C217.537 433.473 236.02 389.114 229.155 358.221Z" fill="#D9D9D9" stroke="black"/>
<path d="M233.57 362.889C230.896 338.249 221.473 306.144 217.095 293.171L204.071 308.053C197.998 338.946 214.708 428.788 218.767 433.802C222.014 437.813 224.736 449.958 225.691 455.529C225.691 450.992 227.123 441.203 229.033 433.802C230.943 426.4 236.912 393.69 233.57 362.889Z" fill="#D9D9D9" stroke="black"/>
<path d="M202.054 448.625C204.755 444.573 207.321 425.855 195.976 383.393C189.304 358.417 190.247 339.787 193.53 327.304C194.099 325.286 194.693 323.399 195.308 321.663C197.404 316.046 199.924 312.188 202.054 310.058C199.653 311.767 197.361 315.875 195.308 321.663C194.668 323.379 194.068 325.259 193.53 327.304C184.015 361.053 181.463 431.637 202.054 448.625Z" fill="#D9D9D9" stroke="black"/>
<path d="M112.084 118.255L143.284 94.6545C143.284 102.239 145.926 107.627 147.63 112.056C148.86 115.255 155.672 125.787 159.883 132.096C160.343 132.495 160.768 132.931 161.145 133.408C164.234 137.315 162.432 135.415 161.145 133.976C160.761 133.408 160.337 132.777 159.883 132.096C156.571 129.224 151.419 128.283 148.993 128.184C137.09 127.275 121.849 127.805 115.716 128.184C116.897 123.55 113.787 119.633 112.084 118.255Z" fill="#D9D9D9" stroke="black"/>
<path d="M215.156 118.255L183.956 94.6545C183.956 102.239 181.314 107.627 179.61 112.056C178.38 115.255 171.567 125.787 167.357 132.096C166.896 132.495 166.472 132.931 166.095 133.408C163.006 137.315 164.808 135.415 166.095 133.976C166.478 133.408 166.902 132.777 167.357 132.096C170.669 129.224 175.821 128.283 178.247 128.184C190.15 127.275 205.391 127.805 211.524 128.184C210.343 123.55 213.453 119.633 215.156 118.255Z" fill="#D9D9D9" stroke="black"/>
<path d="M50.9187 310.214L41.1792 306.386C44.6696 302.559 52.2096 290.692 58.9859 279.237C64.4069 270.073 82.6493 247.238 91.0928 236.966C89.4794 246.216 83.4452 267.62 72.2159 279.237C60.9865 290.853 53.3389 304.729 50.9187 310.214Z" fill="#D9D9D9" stroke="black"/>
<path d="M276.321 310.214L286.061 306.386C282.57 302.559 275.03 290.692 268.254 279.237C262.833 270.073 244.59 247.238 236.147 236.966C237.76 246.216 243.795 267.62 255.024 279.237C266.253 290.853 273.901 304.729 276.321 310.214Z" fill="#D9D9D9" stroke="black"/>
<path d="M69.3593 236.074C78.8543 232.208 87.0414 234.23 90.6946 226.977C90.6946 230.592 90.6946 233.264 91.4128 236.074C78.589 238.876 64.5833 250.15 59.4663 256.461C67.9379 244.635 63.1065 238.62 69.3593 236.074Z" fill="#D9D9D9" stroke="black"/>
<path d="M40.9626 306.18L36.6509 303.945C40.2282 295.385 53.7921 268.225 60.1269 255.715C72.2641 243.322 85.8386 237.545 91.1087 236.206C89.8163 239.271 90.7895 237.828 75.1388 257.472C62.6182 273.186 47.1378 296.492 40.9626 306.18Z" fill="#D9D9D9" stroke="black"/>
<path d="M257.88 236.074C248.385 232.208 240.198 234.23 236.545 226.977C236.545 230.592 236.545 233.264 235.827 236.074C248.651 238.876 262.656 250.15 267.773 256.461C259.302 244.635 264.133 238.62 257.88 236.074Z" fill="#D9D9D9" stroke="black"/>
<path d="M286.277 306.18L290.589 303.945C287.012 295.385 273.448 268.225 267.113 255.715C254.976 243.322 241.401 237.545 236.131 236.206C237.423 239.271 236.45 237.828 252.101 257.472C264.622 273.186 280.102 296.492 286.277 306.18Z" fill="#D9D9D9" stroke="black"/>
<path d="M48.3846 241.669C53.3596 229.608 60.0055 223.578 62.7066 222.07C62.7066 225.353 64.386 226.463 65.0837 229.952C65.7814 233.44 67.983 239.973 62.7066 250.903C58.4856 259.647 43.2338 289.723 36.1355 303.668L30.8591 300.276C42.7313 271.255 42.1659 256.744 48.3846 241.669Z" fill="#D9D9D9" stroke="black"/>
<path d="M278.855 241.669C273.88 229.608 267.234 223.578 264.533 222.07C264.533 225.353 262.854 226.463 262.156 229.952C261.458 233.44 259.257 239.973 264.533 250.903C268.754 259.647 284.006 289.723 291.104 303.668L296.381 300.276C284.508 271.255 285.074 256.744 278.855 241.669Z" fill="#D9D9D9" stroke="black"/>
<path d="M60.5058 203.224C60.0594 191.618 67.2018 182.392 70.8288 179.23C72.4277 177.626 76.052 175.4 77.6643 174.487C86.0343 171.697 93.3347 168.582 95.9387 167.373C97.6127 199.318 88.2663 213.408 81.9888 221.08C76.9668 227.218 69.3873 235.263 66.2253 238.518C66.5973 237.588 66.9228 234.751 65.2488 230.845C63.1564 225.963 61.0638 217.732 60.5058 203.224Z" fill="#D9D9D9" stroke="black"/>
<path d="M266.734 203.224C267.18 191.618 260.038 182.392 256.411 179.23C254.812 177.626 251.188 175.4 249.575 174.487C241.205 171.697 233.905 168.582 231.301 167.373C229.627 199.318 238.973 213.408 245.251 221.08C250.273 227.218 257.852 235.263 261.014 238.518C260.642 237.588 260.317 234.751 261.991 230.845C264.083 225.963 266.176 217.732 266.734 203.224Z" fill="#D9D9D9" stroke="black"/>
<path d="M85.0509 125.799C94.4094 118.984 106.971 118.189 112.081 118.644C123.893 125.231 102.087 159.189 100.27 162.483C98.4524 165.777 92.8873 169.524 84.0286 172.25C76.9416 174.431 71.9898 178.307 70.3998 179.973C69.6805 176.717 68.2874 168.82 68.4691 163.278C68.6962 156.35 73.3527 134.317 85.0509 125.799Z" fill="#D9D9D9" stroke="black"/>
<path d="M242.189 125.799C232.83 118.984 220.269 118.189 215.158 118.644C203.347 125.231 225.153 159.189 226.97 162.483C228.787 165.777 234.352 169.524 243.211 172.25C250.298 174.431 255.25 178.307 256.84 179.973C257.559 176.717 258.952 168.82 258.771 163.278C258.544 156.35 253.887 134.317 242.189 125.799Z" fill="#D9D9D9" stroke="black"/>
<path d="M149.611 127.921C143.745 127.068 124.5 127.566 115.611 127.921C115.611 133.905 111.286 140.79 108.674 146.81C106.584 151.625 101.14 160.704 98.6794 164.641C99.2473 166.571 109.355 185.993 114.239 188.605C119.123 191.217 136.727 194.056 143.078 191.217C148.16 188.945 159.329 181.583 164.278 178.185V136.988C161.878 132.588 156.945 128.988 149.611 127.921Z" fill="#D9D9D9" stroke="black"/>
<path d="M177.628 127.921C183.495 127.068 202.739 127.566 211.628 127.921C211.628 133.905 215.954 140.79 218.566 146.81C220.655 151.625 226.1 160.704 228.56 164.641C227.992 166.571 217.884 185.993 213.001 188.605C208.117 191.217 190.513 194.056 184.161 191.217C179.08 188.945 167.911 181.583 162.962 178.185V136.988C165.362 132.588 170.295 128.988 177.628 127.921Z" fill="#D9D9D9" stroke="black"/>
<path d="M143.47 76.6213L162.875 136.471L184.119 76.6213H143.47Z" fill="#D9D9D9" stroke="black"/>
<path d="M143.285 93.6545V76.1243C145.972 79.0788 152.252 87.3345 155.878 96.7212C159.505 106.108 162.634 126.499 163.745 135.521C157.478 128.855 148.278 114.588 145.745 107.788C143.718 102.348 143.26 96.099 143.285 93.6545Z" fill="#D9D9D9" stroke="black"/>
<path d="M183.955 93.6545V76.1243C181.268 79.0788 174.988 87.3345 171.362 96.7212C167.735 106.108 164.606 126.499 163.495 135.521C169.762 128.855 178.962 114.588 181.495 107.788C183.522 102.348 183.979 96.099 183.955 93.6545Z" fill="#D9D9D9" stroke="black"/>
<path d="M134.718 243.167C136.471 240.59 139.486 240.547 140.774 240.848H155.978C160.101 240.848 161.39 243.167 162.807 244.456C163.941 245.486 163.881 250.984 163.709 253.604V265.071C162.988 267.751 158.77 268.937 156.751 269.194H142.449C140.903 269.194 139.099 268.55 135.749 266.746C133.069 265.303 132.657 261.85 132.786 260.304V250.898C132.7 249.395 132.966 245.744 134.718 243.167Z" fill="#D9D9D9" stroke="black"/>
<path d="M136.066 271.355C138.144 269.094 140.612 268.735 141.841 269.036H156.341C160.273 269.036 161.502 271.355 162.853 272.644C163.935 273.675 163.877 279.172 163.713 281.792V293.259C163.025 295.939 164.778 330.914 162.853 331.172H156.341C154.866 331.172 143.995 307.98 140.516 297.929C138.833 293.067 137.348 289.901 136.066 286.94C134.783 283.979 134.03 281.427 134.03 278.658C134.03 275.425 134.382 273.187 136.066 271.355Z" fill="#D9D9D9" stroke="black"/>
<path d="M192.521 243.167C190.769 240.59 187.754 240.547 186.466 240.848H171.262C167.138 240.848 165.85 243.167 164.433 244.456C163.299 245.486 163.359 250.984 163.531 253.604V265.071C164.252 267.751 168.47 268.937 170.488 269.194H184.791C186.337 269.194 188.141 268.55 191.491 266.746C194.171 265.303 194.583 261.85 194.454 260.304V250.898C194.54 249.395 194.274 245.744 192.521 243.167Z" fill="#D9D9D9" stroke="black"/>
<path d="M191.174 271.355C189.095 269.094 186.628 268.735 185.399 269.036H170.899C166.967 269.036 165.738 271.355 164.386 272.644C163.305 273.675 163.362 279.172 163.526 281.792V293.259C164.214 295.939 162.461 330.914 164.386 331.172H170.899C172.374 331.172 183.244 307.98 186.723 297.929C188.406 293.067 189.892 289.901 191.174 286.94C192.457 283.979 193.209 281.427 193.209 278.658C193.209 275.425 192.858 273.187 191.174 271.355Z" fill="#D9D9D9" stroke="black"/>
<path d="M134.718 214.694C136.471 212.117 139.486 212.074 140.774 212.375H155.978C160.101 212.375 161.39 214.694 162.807 215.982C163.941 217.013 163.881 222.51 163.709 225.13V236.598C162.988 239.278 158.77 240.463 156.751 240.721H142.449C140.903 240.721 139.099 240.077 135.749 238.273C133.069 236.83 132.657 233.377 132.786 231.83V222.425C132.7 220.921 132.966 217.271 134.718 214.694Z" fill="#D9D9D9" stroke="black"/>
<path d="M138.261 193.721C141.897 191.085 156.753 182.484 163.727 178.512V207.809L159.28 212.354H138.942C137.465 211.596 134.375 209.854 133.83 208.945C133.148 207.809 132.239 204.287 132.58 202.469C132.921 200.651 133.716 197.016 138.261 193.721Z" fill="#D9D9D9" stroke="black"/>
<path d="M192.521 214.694C190.769 212.117 187.754 212.074 186.466 212.375H171.262C167.138 212.375 165.85 214.694 164.433 215.982C163.299 217.013 163.359 222.51 163.531 225.13V236.598C164.252 239.278 168.47 240.463 170.488 240.721H184.791C186.337 240.721 188.141 240.077 191.491 238.273C194.171 236.83 194.583 233.377 194.454 231.83V222.425C194.54 220.921 194.274 217.271 192.521 214.694Z" fill="#D9D9D9" stroke="black"/>
<path d="M188.979 193.721C185.343 191.085 170.486 182.484 163.512 178.512V207.809L167.96 212.354H188.297C189.774 211.596 192.865 209.854 193.41 208.945C194.092 207.809 195.001 204.287 194.66 202.469C194.319 200.651 193.524 197.016 188.979 193.721Z" fill="#D9D9D9" stroke="black"/>
<path d="M105.858 178.728C105.708 177.371 101.273 169.368 99.0745 165.536L96.0596 167.798C96.248 189.658 93.4083 200.258 90.9714 206.618C85.5923 220.655 66.6272 237.698 66.6272 237.698C66.6272 237.698 73.4478 233.256 90.9714 231.882C90.9714 224.509 93.4965 222.79 99.0745 212.388C106.047 199.385 106.047 180.424 105.858 178.728Z" fill="#D9D9D9" stroke="black"/>
<path d="M221.381 178.728C221.532 177.371 225.967 169.368 228.165 165.536L231.18 167.798C230.992 189.658 233.831 200.258 236.268 206.618C241.647 220.655 260.613 237.698 260.613 237.698C260.613 237.698 253.792 233.256 236.268 231.882C236.268 224.509 233.743 222.79 228.165 212.388C221.193 199.385 221.193 180.424 221.381 178.728Z" fill="#D9D9D9" stroke="black"/>
<path d="M16.0673 339.724C17.8759 337.825 19.712 330.579 19.9381 328.506C19.5394 329.259 18.5914 331.176 17.9888 332.829C17.2356 334.895 13.0153 338.209 12.1932 340.272C11.3712 342.336 9.05335 344.937 7.47634 348.885C5.89934 352.832 0.172073 355.613 -0.0970575 351.48C-0.366188 347.347 1.93729 346.642 3.63296 342.964C5.32863 339.286 5.28556 335.518 7.47634 332.829C9.66713 330.14 11.6586 328.072 14.1669 325.142C16.1735 322.798 17.2494 319.839 17.5366 318.652L14.9165 320.969C13.8991 323.456 6.45892 325.368 3.63296 325.142C0.807 324.916 -1.79297 321.299 1.93729 320.168C5.66756 319.038 9.62395 314.177 11.6586 312.03C13.6933 309.882 13.0151 307.734 17.5366 306.717C21.1538 305.903 27.7848 302.166 30.7622 300.5C37.8158 305.202 46.9644 309.091 50.6569 310.447C50.77 312.934 50.9282 318.315 50.6569 319.942C50.3178 321.977 46.8136 330.116 44.6659 332.829C42.5182 335.542 41.1617 338.594 41.0487 341.759C40.9356 344.924 38.9009 347.75 38.5618 350.237C38.2227 352.724 36.075 358.036 34.0403 359.506C32.0056 360.975 30.31 360.071 29.9709 358.036C29.6318 356.002 30.7622 355.663 32.2317 351.48C33.7012 347.298 33.4751 347.072 34.0403 343.794C34.6055 340.515 35.2837 336.898 34.0403 336.898C32.7969 336.898 32.3447 341.759 31.7795 344.359C31.2143 346.959 28.8405 350.463 28.2753 352.611C27.7101 354.758 26.5798 362.558 21.9452 361.88C17.3106 361.201 20.8148 357.245 21.9452 354.758C23.0756 352.271 23.0756 349.559 23.9799 347.072C24.8842 344.585 26.3537 342.663 27.258 339.724C28.1623 336.785 27.9362 333.168 27.258 333.394C26.5798 333.62 24.319 338.142 23.0756 341.759C21.8321 345.376 19.0062 347.75 17.9888 351.48C16.9714 355.21 13.0153 360.297 10.0761 360.071C7.13702 359.845 5.89381 356.341 7.47634 354.758C9.05888 353.176 12.4501 348.767 13.0153 347.75C13.5804 346.733 13.8065 342.098 16.0673 339.724Z" fill="#D9D9D9" stroke="black"/>
<path d="M31.8999 318.733C31.8519 320.937 32.7908 326.15 36.9304 329.369" stroke="black"/>
<path d="M18.1016 318.014C22.4615 318.494 32.3886 317.612 37.218 310.253" stroke="black"/>
<path d="M311.172 339.724C309.364 337.825 307.528 330.579 307.302 328.506C307.7 329.259 308.648 331.176 309.251 332.829C310.004 334.895 314.224 338.209 315.047 340.272C315.869 342.336 318.186 344.937 319.763 348.885C321.34 352.832 327.068 355.613 327.337 351.48C327.606 347.347 325.302 346.642 323.607 342.964C321.911 339.286 321.954 335.518 319.763 332.829C317.573 330.14 315.581 328.072 313.073 325.142C311.066 322.798 309.99 319.839 309.703 318.652L312.323 320.969C313.341 323.456 320.781 325.368 323.607 325.142C326.433 324.916 329.033 321.299 325.302 320.168C321.572 319.038 317.616 314.177 315.581 312.03C313.546 309.882 314.225 307.734 309.703 306.717C306.086 305.903 299.455 302.166 296.478 300.5C289.424 305.202 280.275 309.091 276.583 310.447C276.47 312.934 276.312 318.315 276.583 319.942C276.922 321.977 280.426 330.116 282.574 332.829C284.722 335.542 286.078 338.594 286.191 341.759C286.304 344.924 288.339 347.75 288.678 350.237C289.017 352.724 291.165 358.036 293.199 359.506C295.234 360.975 296.93 360.071 297.269 358.036C297.608 356.002 296.478 355.663 295.008 351.48C293.539 347.298 293.765 347.072 293.199 343.794C292.634 340.515 291.956 336.898 293.199 336.898C294.443 336.898 294.895 341.759 295.46 344.359C296.025 346.959 298.399 350.463 298.964 352.611C299.53 354.758 300.66 362.558 305.295 361.88C309.929 361.201 306.425 357.245 305.295 354.758C304.164 352.271 304.164 349.559 303.26 347.072C302.356 344.585 300.886 342.663 299.982 339.724C299.077 336.785 299.304 333.168 299.982 333.394C300.66 333.62 302.921 338.142 304.164 341.759C305.408 345.376 308.233 347.75 309.251 351.48C310.268 355.21 314.224 360.297 317.164 360.071C320.103 359.845 321.346 356.341 319.763 354.758C318.181 353.176 314.79 348.767 314.224 347.75C313.659 346.733 313.433 342.098 311.172 339.724Z" fill="#D9D9D9" stroke="black"/>
<path d="M295.34 318.733C295.388 320.937 294.449 326.15 290.309 329.369" stroke="black"/>
<path d="M309.138 318.014C304.778 318.494 294.851 317.612 290.022 310.253" stroke="black"/>
<path d="M121.643 607.911C120.567 608.656 117.868 609.699 115.683 607.911" stroke="black"/>
<path d="M212.951 606.923C211.875 607.668 209.176 608.711 206.991 606.923" stroke="black"/>
<path d="M138.629 15.2825C144.49 3.22331 157.507 -0.167146 163.283 -0.35498H164.17C169.945 -0.167146 182.962 3.22331 188.823 15.2825C194.684 27.3416 193.143 37.3064 191.641 40.7814C193.143 39.7952 196.374 38.4146 197.276 40.7814C198.403 43.7398 195.867 57.8276 193.754 58.2502C192.063 58.5883 191.171 57.9215 190.936 57.5458C190.748 59.8938 190.063 65.5195 188.823 69.2387C187.273 73.8877 178.539 82.1994 176.567 83.89C174.594 85.5805 171.777 88.3981 169.945 88.539C168.498 88.6503 165.217 88.6352 163.885 88.6348C162.546 88.6352 158.954 88.6503 157.507 88.539C155.675 88.3981 152.858 85.5805 150.886 83.89C148.913 82.1994 140.179 73.8877 138.629 69.2387C137.39 65.5195 136.704 59.8938 136.516 57.5458C136.281 57.9215 135.389 58.5883 133.698 58.2502C131.585 57.8276 129.049 43.7398 130.176 40.7814C131.078 38.4146 134.309 39.7952 135.812 40.7814C134.309 37.3064 132.769 27.3416 138.629 15.2825Z" fill="#D9D9D9"/>
<path d="M163.934 88.6348C162.636 88.6348 158.972 88.6517 157.507 88.539C155.675 88.3981 152.858 85.5805 150.886 83.89C148.913 82.1994 140.179 73.8877 138.629 69.2387C137.39 65.5195 136.704 59.8938 136.516 57.5458C136.281 57.9215 135.389 58.5883 133.698 58.2502C131.585 57.8276 129.049 43.7398 130.176 40.7814C131.078 38.4146 134.309 39.7952 135.812 40.7814C134.309 37.3064 132.769 27.3416 138.629 15.2825C144.49 3.22331 157.507 -0.167146 163.283 -0.35498H164.17C169.945 -0.167146 182.962 3.22331 188.823 15.2825C194.684 27.3416 193.143 37.3064 191.641 40.7814C193.143 39.7952 196.374 38.4146 197.276 40.7814C198.403 43.7398 195.867 57.8276 193.754 58.2502C192.063 58.5883 191.171 57.9215 190.936 57.5458C190.748 59.8938 190.063 65.5195 188.823 69.2387C187.273 73.8877 178.539 82.1994 176.567 83.89C174.594 85.5805 171.777 88.3981 169.945 88.539C168.48 88.6517 165.136 88.6348 163.837 88.6348" stroke="black"/>
</g>
<defs>
<clipPath id="clip0_4363_1204">
<rect width="327" height="652" fill="white"/>
</clipPath>
</defs>
</svg>
